<?xml version="1.0"?>
<svg version="1.1" xmlns="http://www.w3.org/2000/svg" xmlns:xlink="http://www.w3.org/1999/xlink" width="600" height="480">
    <desc iVinci="yes" version="4.6" gridStep="20" showGrid="yes" snapToGrid="yes" codePlatform="0"/>
    <g id="Layer1" name="Layer 1" opacity="1">
        <g id="Shape1">
            <desc shapeID="1" type="0" basicInfo-basicType="0" basicInfo-roundedRectRadius="12" basicInfo-polygonSides="6" basicInfo-starPoints="5" bounding="rect(-200,-150,400,300)" text="" font-familyName="Helvetica" font-pixelSize="20" font-bold="0" font-underline="0" font-alignment="1" strokeStyle="0" markerStart="0" markerEnd="0" shadowEnabled="0" shadowOffsetX="0" shadowOffsetY="2" shadowBlur="4" shadowOpacity="160" blurEnabled="0" blurRadius="4" transform="matrix(1,0,0,1,300.5,250.5)" pers-center="0,0" pers-size="0,0" pers-start="0,0" pers-end="0,0" locked="0" mesh="" flag=""/>
            <path id="shapePath1" d="M100.5,400.5 C100.5,400.5 200.5,100.5 200.5,100.5 C200.5,100.5 400.5,100.5 400.5,100.5 C400.5,100.5 500.5,400.5 500.5,400.5 C500.5,400.5 460.5,400.5 460.5,400.5 C460.5,400.5 380.5,140.5 380.5,140.5 C380.5,140.5 320.5,140.5 320.5,140.5 C320.5,140.5 320.5,120.5 320.5,120.5 C320.5,120.5 280.5,120.5 280.5,120.5 C280.5,120.5 280.5,140.5 280.5,140.5 C280.5,140.5 220.5,140.5 220.5,140.5 C220.5,140.5 140.5,400.5 140.5,400.5 C140.5,400.5 100.5,400.5 100.5,400.5 Z" style="stroke:#f44336;stroke-opacity:1;stroke-width:6;stroke-linejoin:miter;stroke-miterlimit:2;stroke-linecap:round;fill-rule:evenodd;fill:#969696;fill-opacity:0;"/>
        </g>
        <g id="Shape2">
            <desc shapeID="2" type="0" basicInfo-basicType="1" basicInfo-roundedRectRadius="12" basicInfo-polygonSides="6" basicInfo-starPoints="5" bounding="rect(-10.2201,-29.6713,20.4402,59.3427)" text="" font-familyName="Helvetica" font-pixelSize="20" font-bold="0" font-underline="0" font-alignment="1" strokeStyle="0" markerStart="0" markerEnd="0" shadowEnabled="0" shadowOffsetX="0" shadowOffsetY="2" shadowBlur="4" shadowOpacity="160" blurEnabled="0" blurRadius="4" transform="matrix(0.59514,0,0,0.160905,300.579,135.726)" pers-center="0,0" pers-size="0,0" pers-start="0,0" pers-end="0,0" locked="0" mesh="" flag=""/>
            <path id="shapePath2" d="M294.497,130.951 L306.662,130.951 L306.662,140.5 L294.497,140.5 L294.497,130.951 Z" style="stroke:#f44336;stroke-opacity:1;stroke-width:8;stroke-linejoin:miter;stroke-miterlimit:2;stroke-linecap:round;fill-rule:evenodd;fill:#f44336;fill-opacity:1;"/>
        </g>
        <g id="Shape3">
            <desc shapeID="3" type="0" basicInfo-basicType="0" basicInfo-roundedRectRadius="12" basicInfo-polygonSides="6" basicInfo-starPoints="5" bounding="rect(0,-40,0,80)" text="" font-familyName="Helvetica" font-pixelSize="20" font-bold="0" font-underline="0" font-alignment="1" strokeStyle="0" markerStart="0" markerEnd="0" shadowEnabled="0" shadowOffsetX="0" shadowOffsetY="2" shadowBlur="4" shadowOpacity="160" blurEnabled="0" blurRadius="4" transform="matrix(1,0,0,1.25,300.5,190.5)" pers-center="0,0" pers-size="0,0" pers-start="0,0" pers-end="0,0" locked="0" mesh="" flag=""/>
            <path id="shapePath3" d="M300.5,240.5 C300.5,240.5 300.5,140.5 300.5,140.5 " style="stroke:#f44336;stroke-opacity:1;stroke-width:3;stroke-linejoin:miter;stroke-miterlimit:2;stroke-linecap:round;fill-rule:evenodd;fill:#f44336;fill-opacity:1;"/>
        </g>
        <g id="Shape4">
            <desc shapeID="4" type="0" basicInfo-basicType="0" basicInfo-roundedRectRadius="12" basicInfo-polygonSides="6" basicInfo-starPoints="5" bounding="rect(-20,-20,40,40)" text="" font-familyName="Helvetica" font-pixelSize="20" font-bold="0" font-underline="0" font-alignment="1" strokeStyle="0" markerStart="0" markerEnd="0" shadowEnabled="0" shadowOffsetX="0" shadowOffsetY="2" shadowBlur="4" shadowOpacity="160" blurEnabled="0" blurRadius="4" transform="matrix(1,0,0,1,300.5,260.5)" pers-center="0,0" pers-size="0,0" pers-start="0,0" pers-end="0,0" locked="0" mesh="" flag=""/>
            <path id="shapePath4" d="M280.5,240.5 C280.5,240.5 280.5,280.5 280.5,280.5 C280.5,280.5 320.5,280.5 320.5,280.5 C320.5,280.5 320.5,240.5 320.5,240.5 C320.5,240.5 280.5,240.5 280.5,240.5 Z" style="stroke:#303030;stroke-opacity:1;stroke-width:0.5;stroke-linejoin:miter;stroke-miterlimit:2;stroke-linecap:round;fill-rule:evenodd;fill:#91cf8f;fill-opacity:1;"/>
        </g>
    </g>
    <g id="Layer2" name="Layer 2" opacity="1">
        <g id="Shape5">
            <desc shapeID="5" type="0" basicInfo-basicType="0" basicInfo-roundedRectRadius="12" basicInfo-polygonSides="6" basicInfo-starPoints="5" bounding="rect(-80,-20,160,40)" text="" font-familyName="Helvetica" font-pixelSize="20" font-bold="0" font-underline="0" font-alignment="1" strokeStyle="0" markerStart="0" markerEnd="0" shadowEnabled="0" shadowOffsetX="0" shadowOffsetY="2" shadowBlur="4" shadowOpacity="160" blurEnabled="0" blurRadius="4" transform="matrix(1,0,0,1,300.5,380.5)" pers-center="0,0" pers-size="0,0" pers-start="0,0" pers-end="0,0" locked="0" mesh="" flag=""/>
            <path id="shapePath5" d="M280.5,400.5 C280.5,400.5 320.5,400.5 320.5,400.5 C320.5,400.5 380.5,360.5 380.5,360.5 C380.5,360.5 220.5,360.5 220.5,360.5 C220.5,360.5 280.5,400.5 280.5,400.5 Z" style="stroke:#303030;stroke-opacity:1;stroke-width:1;stroke-linejoin:miter;stroke-miterlimit:2;stroke-linecap:round;fill-rule:evenodd;fill:#299fcc;fill-opacity:1;"/>
        </g>
        <g id="Shape6">
            <desc shapeID="6" type="0" basicInfo-basicType="0" basicInfo-roundedRectRadius="12" basicInfo-polygonSides="6" basicInfo-starPoints="5" bounding="rect(-20,-20,40,40)" text="" font-familyName="Helvetica" font-pixelSize="20" font-bold="0" font-underline="0" font-alignment="1" strokeStyle="0" markerStart="0" markerEnd="0" shadowEnabled="0" shadowOffsetX="0" shadowOffsetY="2" shadowBlur="4" shadowOpacity="160" blurEnabled="0" blurRadius="4" transform="matrix(1,0,0,1,260.5,340.5)" pers-center="0,0" pers-size="0,0" pers-start="0,0" pers-end="0,0" locked="0" mesh="" flag=""/>
            <path id="shapePath6" d="M240.5,360.5 C240.5,360.5 240.5,320.5 240.5,320.5 C240.5,320.5 280.5,320.5 280.5,320.5 C280.5,320.5 280.5,360.5 280.5,360.5 C280.5,360.5 240.5,360.5 240.5,360.5 Z" style="stroke:#303030;stroke-opacity:1;stroke-width:0.5;stroke-linejoin:miter;stroke-miterlimit:2;stroke-linecap:round;fill-rule:evenodd;fill:#07962b;fill-opacity:1;"/>
        </g>
        <g id="Shape7">
            <desc shapeID="7" type="0" basicInfo-basicType="0" basicInfo-roundedRectRadius="12" basicInfo-polygonSides="6" basicInfo-starPoints="5" bounding="rect(-10,-20,20,40)" text="" font-familyName="Helvetica" font-pixelSize="20" font-bold="0" font-underline="0" font-alignment="1" strokeStyle="0" markerStart="0" markerEnd="0" shadowEnabled="0" shadowOffsetX="0" shadowOffsetY="2" shadowBlur="4" shadowOpacity="160" blurEnabled="0" blurRadius="4" transform="matrix(1,0,0,1,250.5,300.5)" pers-center="0,0" pers-size="0,0" pers-start="0,0" pers-end="0,0" locked="0" mesh="" flag=""/>
            <path id="shapePath7" d="M240.5,320.5 C240.5,320.5 240.5,280.5 240.5,280.5 C240.5,280.5 260.5,280.5 260.5,280.5 C260.5,280.5 260.5,320.5 260.5,320.5 C260.5,320.5 240.5,320.5 240.5,320.5 Z" style="stroke:#303030;stroke-opacity:1;stroke-width:0.5;stroke-linejoin:miter;stroke-miterlimit:2;stroke-linecap:round;fill-rule:evenodd;fill:#243dbc;fill-opacity:1;"/>
        </g>
        <g id="Shape8">
            <desc shapeID="8" type="0" basicInfo-basicType="0" basicInfo-roundedRectRadius="12" basicInfo-polygonSides="6" basicInfo-starPoints="5" bounding="rect(-10,-20,20,40)" text="" font-familyName="Helvetica" font-pixelSize="20" font-bold="0" font-underline="0" font-alignment="1" strokeStyle="0" markerStart="0" markerEnd="0" shadowEnabled="0" shadowOffsetX="0" shadowOffsetY="2" shadowBlur="4" shadowOpacity="160" blurEnabled="0" blurRadius="4" transform="matrix(1,0,0,1,290.5,340.5)" pers-center="0,0" pers-size="0,0" pers-start="0,0" pers-end="0,0" locked="0" mesh="" flag=""/>
            <path id="shapePath8" d="M280.5,360.5 C280.5,360.5 280.5,320.5 280.5,320.5 C280.5,320.5 300.5,320.5 300.5,320.5 C300.5,320.5 300.5,360.5 300.5,360.5 C300.5,360.5 280.5,360.5 280.5,360.5 Z" style="stroke:#303030;stroke-opacity:1;stroke-width:0.5;stroke-linejoin:miter;stroke-miterlimit:2;stroke-linecap:round;fill-rule:evenodd;fill:#f2a165;fill-opacity:1;"/>
        </g>
        <g id="Shape9">
            <desc shapeID="9" type="0" basicInfo-basicType="0" basicInfo-roundedRectRadius="12" basicInfo-polygonSides="6" basicInfo-starPoints="5" bounding="rect(-10,-20,20,40)" text="" font-familyName="Helvetica" font-pixelSize="20" font-bold="0" font-underline="0" font-alignment="1" strokeStyle="0" markerStart="0" markerEnd="0" shadowEnabled="0" shadowOffsetX="0" shadowOffsetY="2" shadowBlur="4" shadowOpacity="160" blurEnabled="0" blurRadius="4" transform="matrix(1,0,0,0.5,310.5,350.5)" pers-center="0,0" pers-size="0,0" pers-start="0,0" pers-end="0,0" locked="0" mesh="" flag=""/>
            <path id="shapePath9" d="M300.5,360.5 C300.5,360.5 300.5,340.5 300.5,340.5 C300.5,340.5 320.5,340.5 320.5,340.5 C320.5,340.5 320.5,360.5 320.5,360.5 C320.5,360.5 300.5,360.5 300.5,360.5 Z" style="stroke:#303030;stroke-opacity:1;stroke-width:0.5;stroke-linejoin:miter;stroke-miterlimit:2;stroke-linecap:round;fill-rule:evenodd;fill:#e6b0f2;fill-opacity:1;"/>
        </g>
        <g id="Shape10">
            <desc shapeID="10" type="0" basicInfo-basicType="0" basicInfo-roundedRectRadius="12" basicInfo-polygonSides="6" basicInfo-starPoints="5" bounding="rect(-10,-20,20,40)" text="" font-familyName="Helvetica" font-pixelSize="20" font-bold="0" font-underline="0" font-alignment="1" strokeStyle="0" markerStart="0" markerEnd="0" shadowEnabled="0" shadowOffsetX="0" shadowOffsetY="2" shadowBlur="4" shadowOpacity="160" blurEnabled="0" blurRadius="4" transform="matrix(1,0,0,1,330.5,340.5)" pers-center="0,0" pers-size="0,0" pers-start="0,0" pers-end="0,0" locked="0" mesh="" flag=""/>
            <path id="shapePath10" d="M320.5,360.5 C320.5,360.5 320.5,320.5 320.5,320.5 C320.5,320.5 340.5,320.5 340.5,320.5 C340.5,320.5 340.5,360.5 340.5,360.5 C340.5,360.5 320.5,360.5 320.5,360.5 Z" style="stroke:#303030;stroke-opacity:1;stroke-width:0.5;stroke-linejoin:miter;stroke-miterlimit:2;stroke-linecap:round;fill-rule:evenodd;fill:#30bcba;fill-opacity:1;"/>
        </g>
    </g>
    <g id="Layer3" name="Layer 3" opacity="1">
        <g id="Shape11">
            <desc shapeID="11" type="0" basicInfo-basicType="0" basicInfo-roundedRectRadius="12" basicInfo-polygonSides="6" basicInfo-starPoints="5" bounding="rect(-54.5249,-130,109.05,260)" text="" font-familyName="Helvetica" font-pixelSize="20" font-bold="0" font-underline="0" font-alignment="1" strokeStyle="0" markerStart="0" markerEnd="0" shadowEnabled="0" shadowOffsetX="0" shadowOffsetY="2" shadowBlur="4" shadowOpacity="160" blurEnabled="0" blurRadius="4" transform="matrix(-1,0,0,1,165.649,268.001)" pers-center="0,0" pers-size="0,0" pers-start="0,0" pers-end="0,0" locked="0" mesh="" flag=""/>
            <path id="shapePath11" d="M220.174,138.001 C220.174,138.001 190.462,138.001 190.462,138.001 C190.462,138.001 213.248,158.001 213.248,158.001 C213.248,158.001 183.573,158.001 183.573,158.001 C183.573,158.001 207.272,178.001 207.272,178.001 C207.272,178.001 177.486,178.001 177.486,178.001 C177.486,178.001 201.416,198.001 201.416,198.001 C201.416,198.001 169.352,198.001 169.352,198.001 C169.352,198.001 194.404,218.001 194.404,218.001 C194.404,218.001 164.344,218.001 164.344,218.001 C164.344,218.001 188.842,238.001 188.842,238.001 C188.842,238.001 157.717,238.001 157.717,238.001 C157.717,238.001 181.416,258.001 181.416,258.001 C181.416,258.001 150.046,258.001 150.046,258.001 C150.046,258.001 175.793,277.77 175.793,277.77 C175.793,277.77 144.498,278.001 144.498,278.001 C144.498,278.001 170.475,298.001 170.475,298.001 C170.475,298.001 137.101,298.001 137.101,298.001 C137.101,298.001 163.377,318.001 163.377,318.001 C163.377,318.001 130.123,318.001 130.123,318.001 C130.123,318.001 157.354,338.001 157.354,338.001 C157.354,338.001 123.573,338.001 123.573,338.001 C123.573,338.001 151.052,358.001 151.052,358.001 C151.052,358.001 117.717,358.001 117.717,358.001 C117.717,358.001 145.312,378.001 145.312,378.001 C145.312,378.001 111.124,378.001 111.124,378.001 C111.124,378.001 141.416,398.001 141.416,398.001 " style="stroke:#f44336;stroke-opacity:1;stroke-width:3;stroke-linejoin:miter;stroke-miterlimit:2;stroke-linecap:round;fill-rule:evenodd;fill:#f44336;fill-opacity:0.0666667;"/>
        </g>
        <g id="Shape12">
            <desc shapeID="12" type="0" basicInfo-basicType="0" basicInfo-roundedRectRadius="12" basicInfo-polygonSides="6" basicInfo-starPoints="5" bounding="rect(-54.6931,-130,109.386,260)" text="" font-familyName="Helvetica" font-pixelSize="20" font-bold="0" font-underline="0" font-alignment="1" strokeStyle="0" markerStart="0" markerEnd="0" shadowEnabled="0" shadowOffsetX="0" shadowOffsetY="2" shadowBlur="4" shadowOpacity="160" blurEnabled="0" blurRadius="4" transform="matrix(1,0,0,1,435.971,268.001)" pers-center="0,0" pers-size="0,0" pers-start="0,0" pers-end="0,0" locked="0" mesh="" flag=""/>
            <path id="shapePath12" d="M381.278,138.001 C381.278,138.001 410.99,138.001 410.99,138.001 C410.99,138.001 389.445,158.001 389.445,158.001 C389.445,158.001 417.991,158.001 417.991,158.001 C417.991,158.001 395.422,178.001 395.422,178.001 C395.422,178.001 424.643,178.001 424.643,178.001 C424.643,178.001 401.278,198.001 401.278,198.001 C401.278,198.001 431.309,198.001 431.309,198.001 C431.309,198.001 408.289,218.001 408.289,218.001 C408.289,218.001 437.785,218.001 437.785,218.001 C437.785,218.001 412.835,238.001 412.835,238.001 C412.835,238.001 444.976,238.001 444.976,238.001 C444.976,238.001 421.278,258.001 421.278,258.001 C421.278,258.001 451.441,258.001 451.441,258.001 C451.441,258.001 425.207,277.77 425.207,277.77 C425.207,277.77 458.195,278.001 458.195,278.001 C458.195,278.001 432.219,298.001 432.219,298.001 C432.219,298.001 464.385,298.001 464.385,298.001 C464.385,298.001 438.075,318.001 438.075,318.001 C438.075,318.001 470.875,318.001 470.875,318.001 C470.875,318.001 444.437,338.001 444.437,338.001 C444.437,338.001 477.31,338.001 477.31,338.001 C477.31,338.001 450.061,358.001 450.061,358.001 C450.061,358.001 484.071,358.001 484.071,358.001 C484.071,358.001 457.381,378.001 457.381,378.001 C457.381,378.001 490.664,378.001 490.664,378.001 C490.664,378.001 461.278,398.001 461.278,398.001 " style="stroke:#f44336;stroke-opacity:1;stroke-width:3;stroke-linejoin:miter;stroke-miterlimit:2;stroke-linecap:round;fill-rule:evenodd;fill:#f44336;fill-opacity:0.0666667;"/>
        </g>
    </g>
    <g id="Layer4" name="Layer 4" opacity="1">
        <g id="Shape13">
            <desc shapeID="13" type="0" basicInfo-basicType="0" basicInfo-roundedRectRadius="12" basicInfo-polygonSides="6" basicInfo-starPoints="5" bounding="rect(-100,-19.2662,200,38.5325)" text="" font-familyName="Helvetica" font-pixelSize="20" font-bold="0" font-underline="0" font-alignment="1" strokeStyle="0" markerStart="0" markerEnd="0" shadowEnabled="0" shadowOffsetX="0" shadowOffsetY="2" shadowBlur="4" shadowOpacity="160" blurEnabled="0" blurRadius="4" transform="matrix(1,0,0,1,300.5,119.766)" pers-center="0,0" pers-size="0,0" pers-start="0,0" pers-end="0,0" locked="0" mesh="" flag=""/>
            <path id="shapePath13" d="M400.5,102.306 C400.5,102.306 380.5,139.032 380.5,139.032 C380.5,139.032 360.5,102.306 360.5,102.306 C360.5,102.306 340.5,139.032 340.5,139.032 C340.5,139.032 320.5,102.306 320.5,102.306 C320.5,102.306 300.5,120.5 300.5,120.5 C300.5,120.5 280.5,102.306 280.5,102.306 C280.5,102.306 260.5,139.032 260.5,139.032 C260.5,139.032 240.5,102.306 240.5,102.306 C240.5,102.306 220.5,139.032 220.5,139.032 C220.5,139.032 200.5,100.5 200.5,100.5 " style="stroke:#f44336;stroke-opacity:1;stroke-width:3;stroke-linejoin:miter;stroke-miterlimit:2;stroke-linecap:round;fill-rule:evenodd;fill:#f44336;fill-opacity:0.0666667;"/>
        </g>
    </g>
    <g id="Layer5" name="Layer 5" opacity="1">
        <g id="Shape14">
            <desc shapeID="14" type="2" basicInfo-basicType="0" basicInfo-roundedRectRadius="12" basicInfo-polygonSides="6" basicInfo-starPoints="5" bounding="rect(-200,-24.8271,400,49.6542)" text="container-crane" font-familyName="Phosphate" font-pixelSize="45" font-bold="0" font-underline="0" font-alignment="1" strokeStyle="0" markerStart="0" markerEnd="0" shadowEnabled="0" shadowOffsetX="0" shadowOffsetY="2" shadowBlur="4" shadowOpacity="160" blurEnabled="0" blurRadius="4" transform="matrix(1,0,0,1,300.5,45.3271)" pers-center="0,0" pers-size="0,0" pers-start="0,0" pers-end="0,0" locked="0" mesh="" flag=""/>
            <path id="shapePath14" d="M120.461,45.8265 C120.461,44.3865 120.708,43.0365 121.203,41.7765 C121.698,40.5165 122.396,39.4215 123.296,38.4915 C124.196,37.5615 125.291,36.8265 126.581,36.2865 C127.871,35.7465 129.311,35.4765 130.901,35.4765 C131.681,35.4765 132.378,35.529 132.993,35.634 C133.608,35.739 134.126,35.8665 134.546,36.0165 C135.056,36.1665 135.491,36.3465 135.851,36.5565 L136.481,35.4765 C136.001,35.2665 135.491,35.0715 134.951,34.8915 C134.441,34.7415 133.856,34.6065 133.196,34.4865 C132.536,34.3665 131.771,34.3065 130.901,34.3065 C129.371,34.3065 127.908,34.5765 126.513,35.1165 C125.118,35.6565 123.888,36.429 122.823,37.434 C121.758,38.439 120.903,39.654 120.258,41.079 C119.613,42.504 119.291,44.0865 119.291,45.8265 C119.291,47.5965 119.598,49.1865 120.213,50.5965 C120.828,52.0065 121.676,53.214 122.756,54.219 C123.836,55.224 125.096,55.9965 126.536,56.5365 C127.976,57.0765 129.506,57.3465 131.126,57.3465 C132.026,57.3465 132.836,57.2715 133.556,57.1215 C134.276,56.9715 134.891,56.8065 135.401,56.6265 C135.971,56.4165 136.481,56.1765 136.931,55.9065 L136.301,54.8265 C135.911,55.0965 135.461,55.3215 134.951,55.5015 C134.501,55.6815 133.961,55.839 133.331,55.974 C132.701,56.109 131.966,56.1765 131.126,56.1765 C129.476,56.1765 127.991,55.9065 126.671,55.3665 C125.351,54.8265 124.233,54.0915 123.318,53.1615 C122.403,52.2315 121.698,51.1365 121.203,49.8765 C120.708,48.6165 120.461,47.2665 120.461,45.8265 M114.791,45.8265 C114.791,43.4265 115.211,41.259 116.051,39.324 C116.891,37.389 118.031,35.7315 119.471,34.3515 C120.911,32.9715 122.591,31.914 124.511,31.179 C126.431,30.444 128.471,30.0765 130.631,30.0765 C132.341,30.0765 133.863,30.2415 135.198,30.5715 C136.533,30.9015 137.681,31.2765 138.641,31.6965 C139.751,32.1765 140.711,32.7015 141.521,33.2715 L136.796,41.5965 C136.316,41.2365 135.791,40.8915 135.221,40.5615 C134.711,40.3215 134.103,40.089 133.398,39.864 C132.693,39.639 131.891,39.5265 130.991,39.5265 C130.061,39.5265 129.206,39.6915 128.426,40.0215 C127.646,40.3515 126.963,40.8015 126.378,41.3715 C125.793,41.9415 125.336,42.609 125.006,43.374 C124.676,44.139 124.511,44.9565 124.511,45.8265 C124.511,46.6965 124.683,47.514 125.028,48.279 C125.373,49.044 125.846,49.7115 126.446,50.2815 C127.046,50.8515 127.751,51.3015 128.561,51.6315 C129.371,51.9615 130.256,52.1265 131.216,52.1265 C132.176,52.1265 133.031,52.0065 133.781,51.7665 C134.531,51.5265 135.161,51.2565 135.671,50.9565 C136.271,50.6265 136.796,50.2365 137.246,49.7865 L141.971,58.1115 C141.161,58.7715 140.201,59.3565 139.091,59.8665 C138.131,60.2865 136.976,60.6765 135.626,61.0365 C134.276,61.3965 132.731,61.5765 130.991,61.5765 C128.651,61.5765 126.491,61.194 124.511,60.429 C122.531,59.664 120.821,58.5915 119.381,57.2115 C117.941,55.8315 116.816,54.174 116.006,52.239 C115.196,50.304 114.791,48.1665 114.791,45.8265 M142.416,45.8265 C142.416,43.6665 142.828,41.6265 143.653,39.7065 C144.478,37.7865 145.603,36.114 147.028,34.689 C148.453,33.264 150.126,32.139 152.046,31.314 C153.966,30.489 156.006,30.0765 158.166,30.0765 C160.326,30.0765 162.366,30.489 164.286,31.314 C166.206,32.139 167.878,33.264 169.303,34.689 C170.728,36.114 171.853,37.7865 172.678,39.7065 C173.503,41.6265 173.916,43.6665 173.916,45.8265 C173.916,47.9865 173.503,50.0265 172.678,51.9465 C171.853,53.8665 170.728,55.539 169.303,56.964 C167.878,58.389 166.206,59.514 164.286,60.339 C162.366,61.164 160.326,61.5765 158.166,61.5765 C156.006,61.5765 153.966,61.164 152.046,60.339 C150.126,59.514 148.453,58.389 147.028,56.964 C145.603,55.539 144.478,53.8665 143.653,51.9465 C142.828,50.0265 142.416,47.9865 142.416,45.8265 M146.646,45.8265 C146.646,47.4165 146.946,48.909 147.546,50.304 C148.146,51.699 148.971,52.9215 150.021,53.9715 C151.071,55.0215 152.293,55.8465 153.688,56.4465 C155.083,57.0465 156.576,57.3465 158.166,57.3465 C159.756,57.3465 161.248,57.0465 162.643,56.4465 C164.038,55.8465 165.261,55.0215 166.311,53.9715 C167.361,52.9215 168.186,51.699 168.786,50.304 C169.386,48.909 169.686,47.4165 169.686,45.8265 C169.686,44.2365 169.386,42.744 168.786,41.349 C168.186,39.954 167.361,38.7315 166.311,37.6815 C165.261,36.6315 164.038,35.8065 162.643,35.2065 C161.248,34.6065 159.756,34.3065 158.166,34.3065 C156.576,34.3065 155.083,34.6065 153.688,35.2065 C152.293,35.8065 151.071,36.6315 150.021,37.6815 C148.971,38.7315 148.146,39.954 147.546,41.349 C146.946,42.744 146.646,44.2365 146.646,45.8265 M151.866,45.8265 C151.866,46.6965 152.031,47.514 152.361,48.279 C152.691,49.044 153.141,49.7115 153.711,50.2815 C154.281,50.8515 154.948,51.3015 155.713,51.6315 C156.478,51.9615 157.296,52.1265 158.166,52.1265 C159.036,52.1265 159.853,51.9615 160.618,51.6315 C161.383,51.3015 162.051,50.8515 162.621,50.2815 C163.191,49.7115 163.641,49.044 163.971,48.279 C164.301,47.514 164.466,46.6965 164.466,45.8265 C164.466,44.9565 164.301,44.139 163.971,43.374 C163.641,42.609 163.191,41.9415 162.621,41.3715 C162.051,40.8015 161.383,40.3515 160.618,40.0215 C159.853,39.6915 159.036,39.5265 158.166,39.5265 C157.296,39.5265 156.478,39.6915 155.713,40.0215 C154.948,40.3515 154.281,40.8015 153.711,41.3715 C153.141,41.9415 152.691,42.609 152.361,43.374 C152.031,44.139 151.866,44.9565 151.866,45.8265 M158.166,56.1765 C156.726,56.1765 155.383,55.9065 154.138,55.3665 C152.893,54.8265 151.798,54.084 150.853,53.139 C149.908,52.194 149.166,51.099 148.626,49.854 C148.086,48.609 147.816,47.2665 147.816,45.8265 C147.816,44.3865 148.086,43.044 148.626,41.799 C149.166,40.554 149.908,39.459 150.853,38.514 C151.798,37.569 152.893,36.8265 154.138,36.2865 C155.383,35.7465 156.726,35.4765 158.166,35.4765 C159.606,35.4765 160.948,35.7465 162.193,36.2865 C163.438,36.8265 164.533,37.569 165.478,38.514 C166.423,39.459 167.166,40.554 167.706,41.799 C168.246,43.044 168.516,44.3865 168.516,45.8265 C168.516,47.2665 168.246,48.609 167.706,49.854 C167.166,51.099 166.423,52.194 165.478,53.139 C164.533,54.084 163.438,54.8265 162.193,55.3665 C160.948,55.9065 159.606,56.1765 158.166,56.1765 M176.387,30.7965 L184.262,30.7965 L192.543,42.3615 L192.543,30.7965 L201.948,30.7965 L201.948,60.8115 L194.027,60.8115 L185.793,49.2915 L185.793,60.8115 L176.387,60.8115 L176.387,30.7965 M181.742,57.2115 L181.742,36.4215 L196.592,57.2115 L197.762,57.2115 L197.762,34.3965 L196.592,34.3965 L196.592,55.1865 L181.742,34.3965 L180.573,34.3965 L180.573,57.2115 L181.742,57.2115 M209.051,38.6715 L203.516,38.6715 L203.516,30.7965 L224.486,30.7965 L224.486,38.6715 L218.951,38.6715 L218.951,60.8115 L209.051,60.8115 L209.051,38.6715 M214.586,57.2115 L214.586,35.4765 L221.021,35.4765 L221.021,34.3965 L206.981,34.3965 L206.981,35.4765 L213.416,35.4765 L213.416,57.2115 L214.586,57.2115 M234.969,30.7965 L242.169,30.7965 L253.554,60.8115 L244.104,60.8115 L243.114,58.1115 L234.024,58.1115 L233.034,60.8115 L223.584,60.8115 L234.969,30.7965 M240.594,51.4965 L238.569,46.2315 L236.544,51.4965 L240.594,51.4965 M230.289,57.2115 L231.144,54.9615 L245.994,54.9615 L246.849,57.2115 L248.109,57.2115 L239.424,34.3965 L237.714,34.3965 L229.029,57.2115 L230.289,57.2115 M238.569,35.4765 L245.589,53.8815 L231.549,53.8815 L238.569,35.4765 M254.216,30.7965 L264.386,30.7965 L264.386,60.8115 L254.216,60.8115 L254.216,30.7965 M259.886,57.2115 L259.886,34.3965 L258.716,34.3965 L258.716,57.2115 L259.886,57.2115 M267.528,30.7965 L275.403,30.7965 L283.683,42.3615 L283.683,30.7965 L293.088,30.7965 L293.088,60.8115 L285.168,60.8115 L276.933,49.2915 L276.933,60.8115 L267.528,60.8115 L267.528,30.7965 M272.883,57.2115 L272.883,36.4215 L287.733,57.2115 L288.903,57.2115 L288.903,34.3965 L287.733,34.3965 L287.733,55.1865 L272.883,34.3965 L271.713,34.3965 L271.713,57.2115 L272.883,57.2115 M296.231,30.7965 L313.916,30.7965 L313.916,38.6715 L305.816,38.6715 L305.816,42.0015 L313.781,42.0015 L313.781,49.4715 L305.816,49.4715 L305.816,52.9365 L314.231,52.9365 L314.231,60.8115 L296.231,60.8115 L296.231,30.7965 M310.901,57.2115 L310.901,56.1315 L301.901,56.1315 L301.901,46.2765 L310.451,46.2765 L310.451,45.1965 L301.901,45.1965 L301.901,35.4765 L310.901,35.4765 L310.901,34.3965 L300.731,34.3965 L300.731,57.2115 L310.901,57.2115 M326.279,50.3715 C327.449,50.3715 328.589,50.2515 329.699,50.0115 L333.974,57.2115 L335.369,57.2115 L330.869,49.6515 C332.489,49.0815 333.779,48.204 334.739,47.019 C335.699,45.834 336.179,44.2965 336.179,42.4065 C336.179,41.0865 335.924,39.9315 335.414,38.9415 C334.904,37.9515 334.206,37.119 333.321,36.444 C332.436,35.769 331.394,35.259 330.194,34.914 C328.994,34.569 327.689,34.3965 326.279,34.3965 L321.419,34.3965 L321.419,57.2115 L322.589,57.2115 L322.589,50.3715 L326.279,50.3715 M322.589,49.2915 L322.589,35.4765 L326.279,35.4765 C329.009,35.4765 331.146,36.0765 332.691,37.2765 C334.236,38.4765 335.009,40.1865 335.009,42.4065 C335.009,44.6265 334.236,46.329 332.691,47.514 C331.146,48.699 329.009,49.2915 326.279,49.2915 L322.589,49.2915 M316.919,30.7965 L327.269,30.7965 C329.189,30.7965 330.966,31.0515 332.601,31.5615 C334.236,32.0715 335.654,32.8215 336.854,33.8115 C338.054,34.8015 338.991,36.024 339.666,37.479 C340.341,38.934 340.679,40.6065 340.679,42.4965 C340.679,43.9965 340.469,45.2715 340.049,46.3215 C339.629,47.3715 339.164,48.2415 338.654,48.9315 C338.054,49.7115 337.379,50.3715 336.629,50.9115 L342.254,60.8115 L331.004,60.8115 L326.504,53.2065 L326.504,60.8115 L316.919,60.8115 L316.919,30.7965 M326.504,45.5565 L326.999,45.5565 C328.139,45.5565 329.106,45.3015 329.901,44.7915 C330.696,44.2815 331.094,43.4265 331.094,42.2265 C331.094,41.0265 330.696,40.1715 329.901,39.6615 C329.106,39.1515 328.139,38.8965 326.999,38.8965 L326.504,38.8965 L326.504,45.5565 M342.703,42.0465 L354.583,42.0465 L354.583,49.5615 L342.703,49.5615 L342.703,42.0465 M351.928,46.3215 L351.928,45.2865 L345.448,45.2865 L345.448,46.3215 L351.928,46.3215 M362.273,45.8265 C362.273,44.3865 362.521,43.0365 363.016,41.7765 C363.511,40.5165 364.208,39.4215 365.108,38.4915 C366.008,37.5615 367.103,36.8265 368.393,36.2865 C369.683,35.7465 371.123,35.4765 372.713,35.4765 C373.493,35.4765 374.191,35.529 374.806,35.634 C375.421,35.739 375.938,35.8665 376.358,36.0165 C376.868,36.1665 377.303,36.3465 377.663,36.5565 L378.293,35.4765 C377.813,35.2665 377.303,35.0715 376.763,34.8915 C376.253,34.7415 375.668,34.6065 375.008,34.4865 C374.348,34.3665 373.583,34.3065 372.713,34.3065 C371.183,34.3065 369.721,34.5765 368.326,35.1165 C366.931,35.6565 365.701,36.429 364.636,37.434 C363.571,38.439 362.716,39.654 362.071,41.079 C361.426,42.504 361.103,44.0865 361.103,45.8265 C361.103,47.5965 361.411,49.1865 362.026,50.5965 C362.641,52.0065 363.488,53.214 364.568,54.219 C365.648,55.224 366.908,55.9965 368.348,56.5365 C369.788,57.0765 371.318,57.3465 372.938,57.3465 C373.838,57.3465 374.648,57.2715 375.368,57.1215 C376.088,56.9715 376.703,56.8065 377.213,56.6265 C377.783,56.4165 378.293,56.1765 378.743,55.9065 L378.113,54.8265 C377.723,55.0965 377.273,55.3215 376.763,55.5015 C376.313,55.6815 375.773,55.839 375.143,55.974 C374.513,56.109 373.778,56.1765 372.938,56.1765 C371.288,56.1765 369.803,55.9065 368.483,55.3665 C367.163,54.8265 366.046,54.0915 365.131,53.1615 C364.216,52.2315 363.511,51.1365 363.016,49.8765 C362.521,48.6165 362.273,47.2665 362.273,45.8265 M356.603,45.8265 C356.603,43.4265 357.023,41.259 357.863,39.324 C358.703,37.389 359.843,35.7315 361.283,34.3515 C362.723,32.9715 364.403,31.914 366.323,31.179 C368.243,30.444 370.283,30.0765 372.443,30.0765 C374.153,30.0765 375.676,30.2415 377.011,30.5715 C378.346,30.9015 379.493,31.2765 380.453,31.6965 C381.563,32.1765 382.523,32.7015 383.333,33.2715 L378.608,41.5965 C378.128,41.2365 377.603,40.8915 377.033,40.5615 C376.523,40.3215 375.916,40.089 375.211,39.864 C374.506,39.639 373.703,39.5265 372.803,39.5265 C371.873,39.5265 371.018,39.6915 370.238,40.0215 C369.458,40.3515 368.776,40.8015 368.191,41.3715 C367.606,41.9415 367.148,42.609 366.818,43.374 C366.488,44.139 366.323,44.9565 366.323,45.8265 C366.323,46.6965 366.496,47.514 366.841,48.279 C367.186,49.044 367.658,49.7115 368.258,50.2815 C368.858,50.8515 369.563,51.3015 370.373,51.6315 C371.183,51.9615 372.068,52.1265 373.028,52.1265 C373.988,52.1265 374.843,52.0065 375.593,51.7665 C376.343,51.5265 376.973,51.2565 377.483,50.9565 C378.083,50.6265 378.608,50.2365 379.058,49.7865 L383.783,58.1115 C382.973,58.7715 382.013,59.3565 380.903,59.8665 C379.943,60.2865 378.788,60.6765 377.438,61.0365 C376.088,61.3965 374.543,61.5765 372.803,61.5765 C370.463,61.5765 368.303,61.194 366.323,60.429 C364.343,59.664 362.633,58.5915 361.193,57.2115 C359.753,55.8315 358.628,54.174 357.818,52.239 C357.008,50.304 356.603,48.1665 356.603,45.8265 M394.263,50.3715 C395.433,50.3715 396.573,50.2515 397.683,50.0115 L401.958,57.2115 L403.353,57.2115 L398.853,49.6515 C400.473,49.0815 401.763,48.204 402.723,47.019 C403.683,45.834 404.163,44.2965 404.163,42.4065 C404.163,41.0865 403.908,39.9315 403.398,38.9415 C402.888,37.9515 402.191,37.119 401.306,36.444 C400.421,35.769 399.378,35.259 398.178,34.914 C396.978,34.569 395.673,34.3965 394.263,34.3965 L389.403,34.3965 L389.403,57.2115 L390.573,57.2115 L390.573,50.3715 L394.263,50.3715 M390.573,49.2915 L390.573,35.4765 L394.263,35.4765 C396.993,35.4765 399.131,36.0765 400.676,37.2765 C402.221,38.4765 402.993,40.1865 402.993,42.4065 C402.993,44.6265 402.221,46.329 400.676,47.514 C399.131,48.699 396.993,49.2915 394.263,49.2915 L390.573,49.2915 M384.903,30.7965 L395.253,30.7965 C397.173,30.7965 398.951,31.0515 400.586,31.5615 C402.221,32.0715 403.638,32.8215 404.838,33.8115 C406.038,34.8015 406.976,36.024 407.651,37.479 C408.326,38.934 408.663,40.6065 408.663,42.4965 C408.663,43.9965 408.453,45.2715 408.033,46.3215 C407.613,47.3715 407.148,48.2415 406.638,48.9315 C406.038,49.7115 405.363,50.3715 404.613,50.9115 L410.238,60.8115 L398.988,60.8115 L394.488,53.2065 L394.488,60.8115 L384.903,60.8115 L384.903,30.7965 M394.488,45.5565 L394.983,45.5565 C396.123,45.5565 397.091,45.3015 397.886,44.7915 C398.681,44.2815 399.078,43.4265 399.078,42.2265 C399.078,41.0265 398.681,40.1715 397.886,39.6615 C397.091,39.1515 396.123,38.8965 394.983,38.8965 L394.488,38.8965 L394.488,45.5565 M420.047,30.7965 L427.247,30.7965 L438.633,60.8115 L429.182,60.8115 L428.193,58.1115 L419.103,58.1115 L418.112,60.8115 L408.663,60.8115 L420.047,30.7965 M425.672,51.4965 L423.647,46.2315 L421.622,51.4965 L425.672,51.4965 M415.367,57.2115 L416.223,54.9615 L431.073,54.9615 L431.927,57.2115 L433.188,57.2115 L424.503,34.3965 L422.793,34.3965 L414.107,57.2115 L415.367,57.2115 M423.647,35.4765 L430.667,53.8815 L416.628,53.8815 L423.647,35.4765 M439.294,30.7965 L447.169,30.7965 L455.449,42.3615 L455.449,30.7965 L464.854,30.7965 L464.854,60.8115 L456.934,60.8115 L448.699,49.2915 L448.699,60.8115 L439.294,60.8115 L439.294,30.7965 M444.649,57.2115 L444.649,36.4215 L459.499,57.2115 L460.669,57.2115 L460.669,34.3965 L459.499,34.3965 L459.499,55.1865 L444.649,34.3965 L443.479,34.3965 L443.479,57.2115 L444.649,57.2115 M467.997,30.7965 L485.682,30.7965 L485.682,38.6715 L477.582,38.6715 L477.582,42.0015 L485.547,42.0015 L485.547,49.4715 L477.582,49.4715 L477.582,52.9365 L485.997,52.9365 L485.997,60.8115 L467.997,60.8115 L467.997,30.7965 M482.667,57.2115 L482.667,56.1315 L473.667,56.1315 L473.667,46.2765 L482.217,46.2765 L482.217,45.1965 L473.667,45.1965 L473.667,35.4765 L482.667,35.4765 L482.667,34.3965 L472.497,34.3965 L472.497,57.2115 L482.667,57.2115 Z" style="stroke:#000000;stroke-opacity:0;stroke-width:1;stroke-linejoin:miter;stroke-miterlimit:2;stroke-linecap:round;fill-rule:nonzero;fill:#f44336;fill-opacity:1;"/>
        </g>
    </g>
</svg>
