<?xml version="1.0"?>
<svg version="1.1" xmlns="http://www.w3.org/2000/svg" xmlns:xlink="http://www.w3.org/1999/xlink" width="640" height="480">
    <desc iVinci="yes" version="4.6" gridStep="20" showGrid="yes" snapToGrid="no" codePlatform="0"/>
    <g id="Layer1" name="Layer 1" opacity="1">
        <g id="Shape1">
            <desc shapeID="1" type="0" basicInfo-basicType="0" basicInfo-roundedRectRadius="12" basicInfo-polygonSides="6" basicInfo-starPoints="5" bounding="rect(-200,-150,400,300)" text="" font-familyName="Helvetica" font-pixelSize="20" font-bold="0" font-underline="0" font-alignment="1" strokeStyle="0" markerStart="0" markerEnd="0" shadowEnabled="0" shadowOffsetX="0" shadowOffsetY="2" shadowBlur="4" shadowOpacity="160" blurEnabled="0" blurRadius="4" transform="matrix(1,0,0,1,300.5,250.5)" pers-center="0,0" pers-size="0,0" pers-start="0,0" pers-end="0,0" locked="0" mesh="" flag=""/>
            <path id="shapePath1" d="M100.5,400.5 C100.5,400.5 200.5,100.5 200.5,100.5 C200.5,100.5 400.5,100.5 400.5,100.5 C400.5,100.5 500.5,400.5 500.5,400.5 C500.5,400.5 460.5,400.5 460.5,400.5 C460.5,400.5 380.5,140.5 380.5,140.5 C380.5,140.5 320.5,140.5 320.5,140.5 C320.5,140.5 320.5,120.5 320.5,120.5 C320.5,120.5 280.5,120.5 280.5,120.5 C280.5,120.5 280.5,140.5 280.5,140.5 C280.5,140.5 220.5,140.5 220.5,140.5 C220.5,140.5 140.5,400.5 140.5,400.5 C140.5,400.5 100.5,400.5 100.5,400.5 Z" style="stroke:#f44336;stroke-opacity:1;stroke-width:6;stroke-linejoin:miter;stroke-miterlimit:2;stroke-linecap:round;fill-rule:evenodd;fill:#969696;fill-opacity:0;"/>
        </g>
        <g id="Shape2">
            <desc shapeID="2" type="0" basicInfo-basicType="1" basicInfo-roundedRectRadius="12" basicInfo-polygonSides="6" basicInfo-starPoints="5" bounding="rect(-10.2201,-29.6713,20.4402,59.3427)" text="" font-familyName="Helvetica" font-pixelSize="20" font-bold="0" font-underline="0" font-alignment="1" strokeStyle="0" markerStart="0" markerEnd="0" shadowEnabled="0" shadowOffsetX="0" shadowOffsetY="2" shadowBlur="4" shadowOpacity="160" blurEnabled="0" blurRadius="4" transform="matrix(0.59514,0,0,0.160905,300.579,135.726)" pers-center="0,0" pers-size="0,0" pers-start="0,0" pers-end="0,0" locked="0" mesh="" flag=""/>
            <path id="shapePath2" d="M294.497,130.951 L306.662,130.951 L306.662,140.5 L294.497,140.5 L294.497,130.951 Z" style="stroke:#f44336;stroke-opacity:1;stroke-width:8;stroke-linejoin:miter;stroke-miterlimit:2;stroke-linecap:round;fill-rule:evenodd;fill:#f44336;fill-opacity:1;"/>
        </g>
        <g id="Shape3">
            <desc shapeID="3" type="0" basicInfo-basicType="0" basicInfo-roundedRectRadius="12" basicInfo-polygonSides="6" basicInfo-starPoints="5" bounding="rect(0,-40,0,80)" text="" font-familyName="Helvetica" font-pixelSize="20" font-bold="0" font-underline="0" font-alignment="1" strokeStyle="0" markerStart="0" markerEnd="0" shadowEnabled="0" shadowOffsetX="0" shadowOffsetY="2" shadowBlur="4" shadowOpacity="160" blurEnabled="0" blurRadius="4" transform="matrix(1,0,0,1.25,300.5,190.5)" pers-center="0,0" pers-size="0,0" pers-start="0,0" pers-end="0,0" locked="0" mesh="" flag=""/>
            <path id="shapePath3" d="M300.5,240.5 C300.5,240.5 300.5,140.5 300.5,140.5 " style="stroke:#f44336;stroke-opacity:1;stroke-width:3;stroke-linejoin:miter;stroke-miterlimit:2;stroke-linecap:round;fill-rule:evenodd;fill:#f44336;fill-opacity:1;"/>
        </g>
        <g id="Shape4">
            <desc shapeID="4" type="0" basicInfo-basicType="0" basicInfo-roundedRectRadius="12" basicInfo-polygonSides="6" basicInfo-starPoints="5" bounding="rect(-20,-20,40,40)" text="" font-familyName="Helvetica" font-pixelSize="20" font-bold="0" font-underline="0" font-alignment="1" strokeStyle="0" markerStart="0" markerEnd="0" shadowEnabled="0" shadowOffsetX="0" shadowOffsetY="2" shadowBlur="4" shadowOpacity="160" blurEnabled="0" blurRadius="4" transform="matrix(1,0,0,1,300.5,260.5)" pers-center="0,0" pers-size="0,0" pers-start="0,0" pers-end="0,0" locked="0" mesh="" flag=""/>
            <path id="shapePath4" d="M280.5,240.5 C280.5,240.5 280.5,280.5 280.5,280.5 C280.5,280.5 320.5,280.5 320.5,280.5 C320.5,280.5 320.5,240.5 320.5,240.5 C320.5,240.5 280.5,240.5 280.5,240.5 Z" style="stroke:#303030;stroke-opacity:1;stroke-width:0.5;stroke-linejoin:miter;stroke-miterlimit:2;stroke-linecap:round;fill-rule:evenodd;fill:#91cf8f;fill-opacity:1;"/>
        </g>
    </g>
    <g id="Layer2" name="Layer 2" opacity="1">
        <g id="Shape5">
            <desc shapeID="5" type="0" basicInfo-basicType="0" basicInfo-roundedRectRadius="12" basicInfo-polygonSides="6" basicInfo-starPoints="5" bounding="rect(-80,-20,160,40)" text="" font-familyName="Helvetica" font-pixelSize="20" font-bold="0" font-underline="0" font-alignment="1" strokeStyle="0" markerStart="0" markerEnd="0" shadowEnabled="0" shadowOffsetX="0" shadowOffsetY="2" shadowBlur="4" shadowOpacity="160" blurEnabled="0" blurRadius="4" transform="matrix(1,0,0,1,300.5,380.5)" pers-center="0,0" pers-size="0,0" pers-start="0,0" pers-end="0,0" locked="0" mesh="" flag=""/>
            <path id="shapePath5" d="M280.5,400.5 C280.5,400.5 320.5,400.5 320.5,400.5 C320.5,400.5 380.5,360.5 380.5,360.5 C380.5,360.5 220.5,360.5 220.5,360.5 C220.5,360.5 280.5,400.5 280.5,400.5 Z" style="stroke:#303030;stroke-opacity:1;stroke-width:1;stroke-linejoin:miter;stroke-miterlimit:2;stroke-linecap:round;fill-rule:evenodd;fill:#299fcc;fill-opacity:1;"/>
        </g>
        <g id="Shape6">
            <desc shapeID="6" type="0" basicInfo-basicType="0" basicInfo-roundedRectRadius="12" basicInfo-polygonSides="6" basicInfo-starPoints="5" bounding="rect(-20,-20,40,40)" text="" font-familyName="Helvetica" font-pixelSize="20" font-bold="0" font-underline="0" font-alignment="1" strokeStyle="0" markerStart="0" markerEnd="0" shadowEnabled="0" shadowOffsetX="0" shadowOffsetY="2" shadowBlur="4" shadowOpacity="160" blurEnabled="0" blurRadius="4" transform="matrix(1,0,0,1,260.5,340.5)" pers-center="0,0" pers-size="0,0" pers-start="0,0" pers-end="0,0" locked="0" mesh="" flag=""/>
            <path id="shapePath6" d="M240.5,360.5 C240.5,360.5 240.5,320.5 240.5,320.5 C240.5,320.5 280.5,320.5 280.5,320.5 C280.5,320.5 280.5,360.5 280.5,360.5 C280.5,360.5 240.5,360.5 240.5,360.5 Z" style="stroke:#303030;stroke-opacity:1;stroke-width:0.5;stroke-linejoin:miter;stroke-miterlimit:2;stroke-linecap:round;fill-rule:evenodd;fill:#07962b;fill-opacity:1;"/>
        </g>
        <g id="Shape7">
            <desc shapeID="7" type="0" basicInfo-basicType="0" basicInfo-roundedRectRadius="12" basicInfo-polygonSides="6" basicInfo-starPoints="5" bounding="rect(-10,-20,20,40)" text="" font-familyName="Helvetica" font-pixelSize="20" font-bold="0" font-underline="0" font-alignment="1" strokeStyle="0" markerStart="0" markerEnd="0" shadowEnabled="0" shadowOffsetX="0" shadowOffsetY="2" shadowBlur="4" shadowOpacity="160" blurEnabled="0" blurRadius="4" transform="matrix(1,0,0,1,250.5,300.5)" pers-center="0,0" pers-size="0,0" pers-start="0,0" pers-end="0,0" locked="0" mesh="" flag=""/>
            <path id="shapePath7" d="M240.5,320.5 C240.5,320.5 240.5,280.5 240.5,280.5 C240.5,280.5 260.5,280.5 260.5,280.5 C260.5,280.5 260.5,320.5 260.5,320.5 C260.5,320.5 240.5,320.5 240.5,320.5 Z" style="stroke:#303030;stroke-opacity:1;stroke-width:0.5;stroke-linejoin:miter;stroke-miterlimit:2;stroke-linecap:round;fill-rule:evenodd;fill:#243dbc;fill-opacity:1;"/>
        </g>
        <g id="Shape8">
            <desc shapeID="8" type="0" basicInfo-basicType="0" basicInfo-roundedRectRadius="12" basicInfo-polygonSides="6" basicInfo-starPoints="5" bounding="rect(-10,-20,20,40)" text="" font-familyName="Helvetica" font-pixelSize="20" font-bold="0" font-underline="0" font-alignment="1" strokeStyle="0" markerStart="0" markerEnd="0" shadowEnabled="0" shadowOffsetX="0" shadowOffsetY="2" shadowBlur="4" shadowOpacity="160" blurEnabled="0" blurRadius="4" transform="matrix(1,0,0,1,290.5,340.5)" pers-center="0,0" pers-size="0,0" pers-start="0,0" pers-end="0,0" locked="0" mesh="" flag=""/>
            <path id="shapePath8" d="M280.5,360.5 C280.5,360.5 280.5,320.5 280.5,320.5 C280.5,320.5 300.5,320.5 300.5,320.5 C300.5,320.5 300.5,360.5 300.5,360.5 C300.5,360.5 280.5,360.5 280.5,360.5 Z" style="stroke:#303030;stroke-opacity:1;stroke-width:0.5;stroke-linejoin:miter;stroke-miterlimit:2;stroke-linecap:round;fill-rule:evenodd;fill:#f2a165;fill-opacity:1;"/>
        </g>
        <g id="Shape9">
            <desc shapeID="9" type="0" basicInfo-basicType="0" basicInfo-roundedRectRadius="12" basicInfo-polygonSides="6" basicInfo-starPoints="5" bounding="rect(-10,-20,20,40)" text="" font-familyName="Helvetica" font-pixelSize="20" font-bold="0" font-underline="0" font-alignment="1" strokeStyle="0" markerStart="0" markerEnd="0" shadowEnabled="0" shadowOffsetX="0" shadowOffsetY="2" shadowBlur="4" shadowOpacity="160" blurEnabled="0" blurRadius="4" transform="matrix(1,0,0,0.5,310.5,350.5)" pers-center="0,0" pers-size="0,0" pers-start="0,0" pers-end="0,0" locked="0" mesh="" flag=""/>
            <path id="shapePath9" d="M300.5,360.5 C300.5,360.5 300.5,340.5 300.5,340.5 C300.5,340.5 320.5,340.5 320.5,340.5 C320.5,340.5 320.5,360.5 320.5,360.5 C320.5,360.5 300.5,360.5 300.5,360.5 Z" style="stroke:#303030;stroke-opacity:1;stroke-width:0.5;stroke-linejoin:miter;stroke-miterlimit:2;stroke-linecap:round;fill-rule:evenodd;fill:#e6b0f2;fill-opacity:1;"/>
        </g>
        <g id="Shape10">
            <desc shapeID="10" type="0" basicInfo-basicType="0" basicInfo-roundedRectRadius="12" basicInfo-polygonSides="6" basicInfo-starPoints="5" bounding="rect(-10,-20,20,40)" text="" font-familyName="Helvetica" font-pixelSize="20" font-bold="0" font-underline="0" font-alignment="1" strokeStyle="0" markerStart="0" markerEnd="0" shadowEnabled="0" shadowOffsetX="0" shadowOffsetY="2" shadowBlur="4" shadowOpacity="160" blurEnabled="0" blurRadius="4" transform="matrix(1,0,0,1,330.5,340.5)" pers-center="0,0" pers-size="0,0" pers-start="0,0" pers-end="0,0" locked="0" mesh="" flag=""/>
            <path id="shapePath10" d="M320.5,360.5 C320.5,360.5 320.5,320.5 320.5,320.5 C320.5,320.5 340.5,320.5 340.5,320.5 C340.5,320.5 340.5,360.5 340.5,360.5 C340.5,360.5 320.5,360.5 320.5,360.5 Z" style="stroke:#303030;stroke-opacity:1;stroke-width:0.5;stroke-linejoin:miter;stroke-miterlimit:2;stroke-linecap:round;fill-rule:evenodd;fill:#30bcba;fill-opacity:1;"/>
        </g>
    </g>
    <g id="Layer3" name="Layer 3" opacity="1">
        <g id="Shape11">
            <desc shapeID="11" type="0" basicInfo-basicType="0" basicInfo-roundedRectRadius="12" basicInfo-polygonSides="6" basicInfo-starPoints="5" bounding="rect(-54.5249,-130,109.05,260)" text="" font-familyName="Helvetica" font-pixelSize="20" font-bold="0" font-underline="0" font-alignment="1" strokeStyle="0" markerStart="0" markerEnd="0" shadowEnabled="0" shadowOffsetX="0" shadowOffsetY="2" shadowBlur="4" shadowOpacity="160" blurEnabled="0" blurRadius="4" transform="matrix(-1,0,0,1,165.649,268.001)" pers-center="0,0" pers-size="0,0" pers-start="0,0" pers-end="0,0" locked="0" mesh="" flag=""/>
            <path id="shapePath11" d="M220.174,138.001 C220.174,138.001 190.462,138.001 190.462,138.001 C190.462,138.001 213.248,158.001 213.248,158.001 C213.248,158.001 183.573,158.001 183.573,158.001 C183.573,158.001 207.272,178.001 207.272,178.001 C207.272,178.001 177.486,178.001 177.486,178.001 C177.486,178.001 201.416,198.001 201.416,198.001 C201.416,198.001 169.352,198.001 169.352,198.001 C169.352,198.001 194.404,218.001 194.404,218.001 C194.404,218.001 164.344,218.001 164.344,218.001 C164.344,218.001 188.842,238.001 188.842,238.001 C188.842,238.001 157.717,238.001 157.717,238.001 C157.717,238.001 181.416,258.001 181.416,258.001 C181.416,258.001 150.046,258.001 150.046,258.001 C150.046,258.001 175.793,277.77 175.793,277.77 C175.793,277.77 144.498,278.001 144.498,278.001 C144.498,278.001 170.475,298.001 170.475,298.001 C170.475,298.001 137.101,298.001 137.101,298.001 C137.101,298.001 163.377,318.001 163.377,318.001 C163.377,318.001 130.123,318.001 130.123,318.001 C130.123,318.001 157.354,338.001 157.354,338.001 C157.354,338.001 123.573,338.001 123.573,338.001 C123.573,338.001 151.052,358.001 151.052,358.001 C151.052,358.001 117.717,358.001 117.717,358.001 C117.717,358.001 145.312,378.001 145.312,378.001 C145.312,378.001 111.124,378.001 111.124,378.001 C111.124,378.001 141.416,398.001 141.416,398.001 " style="stroke:#f44336;stroke-opacity:1;stroke-width:3;stroke-linejoin:miter;stroke-miterlimit:2;stroke-linecap:round;fill-rule:evenodd;fill:#f44336;fill-opacity:0.0666667;"/>
        </g>
        <g id="Shape12">
            <desc shapeID="12" type="0" basicInfo-basicType="0" basicInfo-roundedRectRadius="12" basicInfo-polygonSides="6" basicInfo-starPoints="5" bounding="rect(-54.6931,-130,109.386,260)" text="" font-familyName="Helvetica" font-pixelSize="20" font-bold="0" font-underline="0" font-alignment="1" strokeStyle="0" markerStart="0" markerEnd="0" shadowEnabled="0" shadowOffsetX="0" shadowOffsetY="2" shadowBlur="4" shadowOpacity="160" blurEnabled="0" blurRadius="4" transform="matrix(1,0,0,1,435.971,268.001)" pers-center="0,0" pers-size="0,0" pers-start="0,0" pers-end="0,0" locked="0" mesh="" flag=""/>
            <path id="shapePath12" d="M381.278,138.001 C381.278,138.001 410.99,138.001 410.99,138.001 C410.99,138.001 389.445,158.001 389.445,158.001 C389.445,158.001 417.991,158.001 417.991,158.001 C417.991,158.001 395.422,178.001 395.422,178.001 C395.422,178.001 424.643,178.001 424.643,178.001 C424.643,178.001 401.278,198.001 401.278,198.001 C401.278,198.001 431.309,198.001 431.309,198.001 C431.309,198.001 408.289,218.001 408.289,218.001 C408.289,218.001 437.785,218.001 437.785,218.001 C437.785,218.001 412.835,238.001 412.835,238.001 C412.835,238.001 444.976,238.001 444.976,238.001 C444.976,238.001 421.278,258.001 421.278,258.001 C421.278,258.001 451.441,258.001 451.441,258.001 C451.441,258.001 425.207,277.77 425.207,277.77 C425.207,277.77 458.195,278.001 458.195,278.001 C458.195,278.001 432.219,298.001 432.219,298.001 C432.219,298.001 464.385,298.001 464.385,298.001 C464.385,298.001 438.075,318.001 438.075,318.001 C438.075,318.001 470.875,318.001 470.875,318.001 C470.875,318.001 444.437,338.001 444.437,338.001 C444.437,338.001 477.31,338.001 477.31,338.001 C477.31,338.001 450.061,358.001 450.061,358.001 C450.061,358.001 484.071,358.001 484.071,358.001 C484.071,358.001 457.381,378.001 457.381,378.001 C457.381,378.001 490.664,378.001 490.664,378.001 C490.664,378.001 461.278,398.001 461.278,398.001 " style="stroke:#f44336;stroke-opacity:1;stroke-width:3;stroke-linejoin:miter;stroke-miterlimit:2;stroke-linecap:round;fill-rule:evenodd;fill:#f44336;fill-opacity:0.0666667;"/>
        </g>
    </g>
    <g id="Layer4" name="Layer 4" opacity="1">
        <g id="Shape13">
            <desc shapeID="13" type="0" basicInfo-basicType="0" basicInfo-roundedRectRadius="12" basicInfo-polygonSides="6" basicInfo-starPoints="5" bounding="rect(-100,-19.2662,200,38.5325)" text="" font-familyName="Helvetica" font-pixelSize="20" font-bold="0" font-underline="0" font-alignment="1" strokeStyle="0" markerStart="0" markerEnd="0" shadowEnabled="0" shadowOffsetX="0" shadowOffsetY="2" shadowBlur="4" shadowOpacity="160" blurEnabled="0" blurRadius="4" transform="matrix(1,0,0,1,300.5,119.766)" pers-center="0,0" pers-size="0,0" pers-start="0,0" pers-end="0,0" locked="0" mesh="" flag=""/>
            <path id="shapePath13" d="M400.5,102.306 C400.5,102.306 380.5,139.032 380.5,139.032 C380.5,139.032 360.5,102.306 360.5,102.306 C360.5,102.306 340.5,139.032 340.5,139.032 C340.5,139.032 320.5,102.306 320.5,102.306 C320.5,102.306 300.5,120.5 300.5,120.5 C300.5,120.5 280.5,102.306 280.5,102.306 C280.5,102.306 260.5,139.032 260.5,139.032 C260.5,139.032 240.5,102.306 240.5,102.306 C240.5,102.306 220.5,139.032 220.5,139.032 C220.5,139.032 200.5,100.5 200.5,100.5 " style="stroke:#f44336;stroke-opacity:1;stroke-width:3;stroke-linejoin:miter;stroke-miterlimit:2;stroke-linecap:round;fill-rule:evenodd;fill:#f44336;fill-opacity:0.0666667;"/>
        </g>
    </g>
</svg>
