<?xml version="1.0"?>
<svg version="1.1" xmlns="http://www.w3.org/2000/svg" xmlns:xlink="http://www.w3.org/1999/xlink" width="1000" height="600">
    <desc iVinci="yes" version="4.6" gridStep="20" showGrid="yes" snapToGrid="yes" codePlatform="0"/>
    <g id="Layer1" name="Layer 1" opacity="1">
        <g id="Shape1">
            <desc shapeID="1" type="0" basicInfo-basicType="0" basicInfo-roundedRectRadius="12" basicInfo-polygonSides="6" basicInfo-starPoints="5" bounding="rect(-200,-150,400,300)" text="" font-familyName="Helvetica" font-pixelSize="20" font-bold="0" font-underline="0" font-alignment="1" strokeStyle="0" markerStart="0" markerEnd="0" shadowEnabled="0" shadowOffsetX="0" shadowOffsetY="2" shadowBlur="4" shadowOpacity="160" blurEnabled="0" blurRadius="4" transform="matrix(1,0,0,1,500.5,340.924)" pers-center="0,0" pers-size="0,0" pers-start="0,0" pers-end="0,0" locked="0" mesh="" flag=""/>
            <path id="shapePath1" d="M300.5,490.924 C300.5,490.924 400.5,190.924 400.5,190.924 C400.5,190.924 600.5,190.924 600.5,190.924 C600.5,190.924 700.5,490.924 700.5,490.924 C700.5,490.924 660.5,490.924 660.5,490.924 C660.5,490.924 580.5,230.924 580.5,230.924 C580.5,230.924 520.5,230.924 520.5,230.924 C520.5,230.924 520.5,210.924 520.5,210.924 C520.5,210.924 480.5,210.924 480.5,210.924 C480.5,210.924 480.5,230.924 480.5,230.924 C480.5,230.924 420.5,230.924 420.5,230.924 C420.5,230.924 340.5,490.924 340.5,490.924 C340.5,490.924 300.5,490.924 300.5,490.924 Z" style="stroke:#f44336;stroke-opacity:1;stroke-width:6;stroke-linejoin:miter;stroke-miterlimit:2;stroke-linecap:round;fill-rule:evenodd;fill:#969696;fill-opacity:0;"/>
        </g>
        <g id="Shape2">
            <desc shapeID="2" type="0" basicInfo-basicType="1" basicInfo-roundedRectRadius="12" basicInfo-polygonSides="6" basicInfo-starPoints="5" bounding="rect(-10.2201,-29.6713,20.4402,59.3427)" text="" font-familyName="Helvetica" font-pixelSize="20" font-bold="0" font-underline="0" font-alignment="1" strokeStyle="0" markerStart="0" markerEnd="0" shadowEnabled="0" shadowOffsetX="0" shadowOffsetY="2" shadowBlur="4" shadowOpacity="160" blurEnabled="0" blurRadius="4" transform="matrix(0.59514,0,0,0.160905,500.579,226.149)" pers-center="0,0" pers-size="0,0" pers-start="0,0" pers-end="0,0" locked="0" mesh="" flag=""/>
            <path id="shapePath2" d="M494.497,221.375 L506.662,221.375 L506.662,230.924 L494.497,230.924 L494.497,221.375 Z" style="stroke:#f44336;stroke-opacity:1;stroke-width:8;stroke-linejoin:miter;stroke-miterlimit:2;stroke-linecap:round;fill-rule:evenodd;fill:#f44336;fill-opacity:1;"/>
        </g>
        <g id="Shape3">
            <desc shapeID="3" type="0" basicInfo-basicType="0" basicInfo-roundedRectRadius="12" basicInfo-polygonSides="6" basicInfo-starPoints="5" bounding="rect(0,-40,0,80)" text="" font-familyName="Helvetica" font-pixelSize="20" font-bold="0" font-underline="0" font-alignment="1" strokeStyle="0" markerStart="0" markerEnd="0" shadowEnabled="0" shadowOffsetX="0" shadowOffsetY="2" shadowBlur="4" shadowOpacity="160" blurEnabled="0" blurRadius="4" transform="matrix(1,0,0,1.25,500.5,280.924)" pers-center="0,0" pers-size="0,0" pers-start="0,0" pers-end="0,0" locked="0" mesh="" flag=""/>
            <path id="shapePath3" d="M500.5,330.924 C500.5,330.924 500.5,230.924 500.5,230.924 " style="stroke:#f44336;stroke-opacity:1;stroke-width:3;stroke-linejoin:miter;stroke-miterlimit:2;stroke-linecap:round;fill-rule:evenodd;fill:#f44336;fill-opacity:1;"/>
        </g>
        <g id="Shape4">
            <desc shapeID="4" type="0" basicInfo-basicType="0" basicInfo-roundedRectRadius="12" basicInfo-polygonSides="6" basicInfo-starPoints="5" bounding="rect(-20,-20,40,40)" text="" font-familyName="Helvetica" font-pixelSize="20" font-bold="0" font-underline="0" font-alignment="1" strokeStyle="0" markerStart="0" markerEnd="0" shadowEnabled="0" shadowOffsetX="0" shadowOffsetY="2" shadowBlur="4" shadowOpacity="160" blurEnabled="0" blurRadius="4" transform="matrix(1,0,0,1,500.5,350.924)" pers-center="0,0" pers-size="0,0" pers-start="0,0" pers-end="0,0" locked="0" mesh="" flag=""/>
            <path id="shapePath4" d="M480.5,330.924 C480.5,330.924 480.5,370.924 480.5,370.924 C480.5,370.924 520.5,370.924 520.5,370.924 C520.5,370.924 520.5,330.924 520.5,330.924 C520.5,330.924 480.5,330.924 480.5,330.924 Z" style="stroke:#303030;stroke-opacity:1;stroke-width:0.5;stroke-linejoin:miter;stroke-miterlimit:2;stroke-linecap:round;fill-rule:evenodd;fill:#91cf8f;fill-opacity:1;"/>
        </g>
    </g>
    <g id="Layer2" name="Layer 2" opacity="1">
        <g id="Shape5">
            <desc shapeID="5" type="0" basicInfo-basicType="0" basicInfo-roundedRectRadius="12" basicInfo-polygonSides="6" basicInfo-starPoints="5" bounding="rect(-80,-20,160,40)" text="" font-familyName="Helvetica" font-pixelSize="20" font-bold="0" font-underline="0" font-alignment="1" strokeStyle="0" markerStart="0" markerEnd="0" shadowEnabled="0" shadowOffsetX="0" shadowOffsetY="2" shadowBlur="4" shadowOpacity="160" blurEnabled="0" blurRadius="4" transform="matrix(1,0,0,1,500.5,470.924)" pers-center="0,0" pers-size="0,0" pers-start="0,0" pers-end="0,0" locked="0" mesh="" flag=""/>
            <path id="shapePath5" d="M480.5,490.924 C480.5,490.924 520.5,490.924 520.5,490.924 C520.5,490.924 580.5,450.924 580.5,450.924 C580.5,450.924 420.5,450.924 420.5,450.924 C420.5,450.924 480.5,490.924 480.5,490.924 Z" style="stroke:#303030;stroke-opacity:1;stroke-width:1;stroke-linejoin:miter;stroke-miterlimit:2;stroke-linecap:round;fill-rule:evenodd;fill:#299fcc;fill-opacity:1;"/>
        </g>
        <g id="Shape6">
            <desc shapeID="6" type="0" basicInfo-basicType="0" basicInfo-roundedRectRadius="12" basicInfo-polygonSides="6" basicInfo-starPoints="5" bounding="rect(-20,-20,40,40)" text="" font-familyName="Helvetica" font-pixelSize="20" font-bold="0" font-underline="0" font-alignment="1" strokeStyle="0" markerStart="0" markerEnd="0" shadowEnabled="0" shadowOffsetX="0" shadowOffsetY="2" shadowBlur="4" shadowOpacity="160" blurEnabled="0" blurRadius="4" transform="matrix(1,0,0,1,460.5,430.924)" pers-center="0,0" pers-size="0,0" pers-start="0,0" pers-end="0,0" locked="0" mesh="" flag=""/>
            <path id="shapePath6" d="M440.5,450.924 C440.5,450.924 440.5,410.924 440.5,410.924 C440.5,410.924 480.5,410.924 480.5,410.924 C480.5,410.924 480.5,450.924 480.5,450.924 C480.5,450.924 440.5,450.924 440.5,450.924 Z" style="stroke:#303030;stroke-opacity:1;stroke-width:0.5;stroke-linejoin:miter;stroke-miterlimit:2;stroke-linecap:round;fill-rule:evenodd;fill:#07962b;fill-opacity:1;"/>
        </g>
        <g id="Shape7">
            <desc shapeID="7" type="0" basicInfo-basicType="0" basicInfo-roundedRectRadius="12" basicInfo-polygonSides="6" basicInfo-starPoints="5" bounding="rect(-10,-20,20,40)" text="" font-familyName="Helvetica" font-pixelSize="20" font-bold="0" font-underline="0" font-alignment="1" strokeStyle="0" markerStart="0" markerEnd="0" shadowEnabled="0" shadowOffsetX="0" shadowOffsetY="2" shadowBlur="4" shadowOpacity="160" blurEnabled="0" blurRadius="4" transform="matrix(1,0,0,1,450.5,390.924)" pers-center="0,0" pers-size="0,0" pers-start="0,0" pers-end="0,0" locked="0" mesh="" flag=""/>
            <path id="shapePath7" d="M440.5,410.924 C440.5,410.924 440.5,370.924 440.5,370.924 C440.5,370.924 460.5,370.924 460.5,370.924 C460.5,370.924 460.5,410.924 460.5,410.924 C460.5,410.924 440.5,410.924 440.5,410.924 Z" style="stroke:#303030;stroke-opacity:1;stroke-width:0.5;stroke-linejoin:miter;stroke-miterlimit:2;stroke-linecap:round;fill-rule:evenodd;fill:#243dbc;fill-opacity:1;"/>
        </g>
        <g id="Shape8">
            <desc shapeID="8" type="0" basicInfo-basicType="0" basicInfo-roundedRectRadius="12" basicInfo-polygonSides="6" basicInfo-starPoints="5" bounding="rect(-10,-20,20,40)" text="" font-familyName="Helvetica" font-pixelSize="20" font-bold="0" font-underline="0" font-alignment="1" strokeStyle="0" markerStart="0" markerEnd="0" shadowEnabled="0" shadowOffsetX="0" shadowOffsetY="2" shadowBlur="4" shadowOpacity="160" blurEnabled="0" blurRadius="4" transform="matrix(1,0,0,1,490.5,430.924)" pers-center="0,0" pers-size="0,0" pers-start="0,0" pers-end="0,0" locked="0" mesh="" flag=""/>
            <path id="shapePath8" d="M480.5,450.924 C480.5,450.924 480.5,410.924 480.5,410.924 C480.5,410.924 500.5,410.924 500.5,410.924 C500.5,410.924 500.5,450.924 500.5,450.924 C500.5,450.924 480.5,450.924 480.5,450.924 Z" style="stroke:#303030;stroke-opacity:1;stroke-width:0.5;stroke-linejoin:miter;stroke-miterlimit:2;stroke-linecap:round;fill-rule:evenodd;fill:#f2a165;fill-opacity:1;"/>
        </g>
        <g id="Shape9">
            <desc shapeID="9" type="0" basicInfo-basicType="0" basicInfo-roundedRectRadius="12" basicInfo-polygonSides="6" basicInfo-starPoints="5" bounding="rect(-10,-20,20,40)" text="" font-familyName="Helvetica" font-pixelSize="20" font-bold="0" font-underline="0" font-alignment="1" strokeStyle="0" markerStart="0" markerEnd="0" shadowEnabled="0" shadowOffsetX="0" shadowOffsetY="2" shadowBlur="4" shadowOpacity="160" blurEnabled="0" blurRadius="4" transform="matrix(1,0,0,0.5,510.5,440.924)" pers-center="0,0" pers-size="0,0" pers-start="0,0" pers-end="0,0" locked="0" mesh="" flag=""/>
            <path id="shapePath9" d="M500.5,450.924 C500.5,450.924 500.5,430.924 500.5,430.924 C500.5,430.924 520.5,430.924 520.5,430.924 C520.5,430.924 520.5,450.924 520.5,450.924 C520.5,450.924 500.5,450.924 500.5,450.924 Z" style="stroke:#303030;stroke-opacity:1;stroke-width:0.5;stroke-linejoin:miter;stroke-miterlimit:2;stroke-linecap:round;fill-rule:evenodd;fill:#e6b0f2;fill-opacity:1;"/>
        </g>
        <g id="Shape10">
            <desc shapeID="10" type="0" basicInfo-basicType="0" basicInfo-roundedRectRadius="12" basicInfo-polygonSides="6" basicInfo-starPoints="5" bounding="rect(-10,-20,20,40)" text="" font-familyName="Helvetica" font-pixelSize="20" font-bold="0" font-underline="0" font-alignment="1" strokeStyle="0" markerStart="0" markerEnd="0" shadowEnabled="0" shadowOffsetX="0" shadowOffsetY="2" shadowBlur="4" shadowOpacity="160" blurEnabled="0" blurRadius="4" transform="matrix(1,0,0,1,530.5,430.924)" pers-center="0,0" pers-size="0,0" pers-start="0,0" pers-end="0,0" locked="0" mesh="" flag=""/>
            <path id="shapePath10" d="M520.5,450.924 C520.5,450.924 520.5,410.924 520.5,410.924 C520.5,410.924 540.5,410.924 540.5,410.924 C540.5,410.924 540.5,450.924 540.5,450.924 C540.5,450.924 520.5,450.924 520.5,450.924 Z" style="stroke:#303030;stroke-opacity:1;stroke-width:0.5;stroke-linejoin:miter;stroke-miterlimit:2;stroke-linecap:round;fill-rule:evenodd;fill:#30bcba;fill-opacity:1;"/>
        </g>
    </g>
    <g id="Layer3" name="Layer 3" opacity="1">
        <g id="Shape11">
            <desc shapeID="11" type="0" basicInfo-basicType="0" basicInfo-roundedRectRadius="12" basicInfo-polygonSides="6" basicInfo-starPoints="5" bounding="rect(-54.5249,-130,109.05,260)" text="" font-familyName="Helvetica" font-pixelSize="20" font-bold="0" font-underline="0" font-alignment="1" strokeStyle="0" markerStart="0" markerEnd="0" shadowEnabled="0" shadowOffsetX="0" shadowOffsetY="2" shadowBlur="4" shadowOpacity="160" blurEnabled="0" blurRadius="4" transform="matrix(-1,0,0,1,365.649,358.425)" pers-center="0,0" pers-size="0,0" pers-start="0,0" pers-end="0,0" locked="0" mesh="" flag=""/>
            <path id="shapePath11" d="M420.174,228.425 C420.174,228.425 390.462,228.425 390.462,228.425 C390.462,228.425 413.248,248.425 413.248,248.425 C413.248,248.425 383.573,248.425 383.573,248.425 C383.573,248.425 407.272,268.425 407.272,268.425 C407.272,268.425 377.486,268.425 377.486,268.425 C377.486,268.425 401.416,288.425 401.416,288.425 C401.416,288.425 369.352,288.425 369.352,288.425 C369.352,288.425 394.404,308.425 394.404,308.425 C394.404,308.425 364.344,308.425 364.344,308.425 C364.344,308.425 388.842,328.425 388.842,328.425 C388.842,328.425 357.717,328.425 357.717,328.425 C357.717,328.425 381.416,348.425 381.416,348.425 C381.416,348.425 350.046,348.425 350.046,348.425 C350.046,348.425 375.793,368.194 375.793,368.194 C375.793,368.194 344.498,368.425 344.498,368.425 C344.498,368.425 370.474,388.425 370.474,388.425 C370.474,388.425 337.101,388.425 337.101,388.425 C337.101,388.425 363.377,408.425 363.377,408.425 C363.377,408.425 330.123,408.425 330.123,408.425 C330.123,408.425 357.354,428.425 357.354,428.425 C357.354,428.425 323.573,428.425 323.573,428.425 C323.573,428.425 351.052,448.425 351.052,448.425 C351.052,448.425 317.717,448.425 317.717,448.425 C317.717,448.425 345.312,468.425 345.312,468.425 C345.312,468.425 311.124,468.425 311.124,468.425 C311.124,468.425 341.416,488.425 341.416,488.425 " style="stroke:#f44336;stroke-opacity:1;stroke-width:3;stroke-linejoin:miter;stroke-miterlimit:2;stroke-linecap:round;fill-rule:evenodd;fill:#f44336;fill-opacity:0.0666667;"/>
        </g>
        <g id="Shape12">
            <desc shapeID="12" type="0" basicInfo-basicType="0" basicInfo-roundedRectRadius="12" basicInfo-polygonSides="6" basicInfo-starPoints="5" bounding="rect(-54.6931,-130,109.386,260)" text="" font-familyName="Helvetica" font-pixelSize="20" font-bold="0" font-underline="0" font-alignment="1" strokeStyle="0" markerStart="0" markerEnd="0" shadowEnabled="0" shadowOffsetX="0" shadowOffsetY="2" shadowBlur="4" shadowOpacity="160" blurEnabled="0" blurRadius="4" transform="matrix(1,0,0,1,635.971,358.425)" pers-center="0,0" pers-size="0,0" pers-start="0,0" pers-end="0,0" locked="0" mesh="" flag=""/>
            <path id="shapePath12" d="M581.278,228.425 C581.278,228.425 610.99,228.425 610.99,228.425 C610.99,228.425 589.445,248.425 589.445,248.425 C589.445,248.425 617.991,248.425 617.991,248.425 C617.991,248.425 595.422,268.425 595.422,268.425 C595.422,268.425 624.643,268.425 624.643,268.425 C624.643,268.425 601.278,288.425 601.278,288.425 C601.278,288.425 631.309,288.425 631.309,288.425 C631.309,288.425 608.289,308.425 608.289,308.425 C608.289,308.425 637.785,308.425 637.785,308.425 C637.785,308.425 612.835,328.425 612.835,328.425 C612.835,328.425 644.976,328.425 644.976,328.425 C644.976,328.425 621.278,348.425 621.278,348.425 C621.278,348.425 651.441,348.425 651.441,348.425 C651.441,348.425 625.207,368.194 625.207,368.194 C625.207,368.194 658.195,368.425 658.195,368.425 C658.195,368.425 632.219,388.425 632.219,388.425 C632.219,388.425 664.385,388.425 664.385,388.425 C664.385,388.425 638.075,408.425 638.075,408.425 C638.075,408.425 670.875,408.425 670.875,408.425 C670.875,408.425 644.437,428.425 644.437,428.425 C644.437,428.425 677.31,428.425 677.31,428.425 C677.31,428.425 650.061,448.425 650.061,448.425 C650.061,448.425 684.071,448.425 684.071,448.425 C684.071,448.425 657.381,468.425 657.381,468.425 C657.381,468.425 690.664,468.425 690.664,468.425 C690.664,468.425 661.278,488.425 661.278,488.425 " style="stroke:#f44336;stroke-opacity:1;stroke-width:3;stroke-linejoin:miter;stroke-miterlimit:2;stroke-linecap:round;fill-rule:evenodd;fill:#f44336;fill-opacity:0.0666667;"/>
        </g>
    </g>
    <g id="Layer4" name="Layer 4" opacity="1">
        <g id="Shape13">
            <desc shapeID="13" type="0" basicInfo-basicType="0" basicInfo-roundedRectRadius="12" basicInfo-polygonSides="6" basicInfo-starPoints="5" bounding="rect(-100,-19.2662,200,38.5325)" text="" font-familyName="Helvetica" font-pixelSize="20" font-bold="0" font-underline="0" font-alignment="1" strokeStyle="0" markerStart="0" markerEnd="0" shadowEnabled="0" shadowOffsetX="0" shadowOffsetY="2" shadowBlur="4" shadowOpacity="160" blurEnabled="0" blurRadius="4" transform="matrix(1,0,0,1,500.5,210.19)" pers-center="0,0" pers-size="0,0" pers-start="0,0" pers-end="0,0" locked="0" mesh="" flag=""/>
            <path id="shapePath13" d="M600.5,192.73 C600.5,192.73 580.5,229.456 580.5,229.456 C580.5,229.456 560.5,192.73 560.5,192.73 C560.5,192.73 540.5,229.456 540.5,229.456 C540.5,229.456 520.5,192.73 520.5,192.73 C520.5,192.73 500.5,210.924 500.5,210.924 C500.5,210.924 480.5,192.73 480.5,192.73 C480.5,192.73 460.5,229.456 460.5,229.456 C460.5,229.456 440.5,192.73 440.5,192.73 C440.5,192.73 420.5,229.456 420.5,229.456 C420.5,229.456 400.5,190.924 400.5,190.924 " style="stroke:#f44336;stroke-opacity:1;stroke-width:3;stroke-linejoin:miter;stroke-miterlimit:2;stroke-linecap:round;fill-rule:evenodd;fill:#f44336;fill-opacity:0.0666667;"/>
        </g>
    </g>
    <g id="Layer5" name="Layer 5" opacity="1">
        <g id="Shape14">
            <desc shapeID="14" type="2" basicInfo-basicType="0" basicInfo-roundedRectRadius="12" basicInfo-polygonSides="6" basicInfo-starPoints="5" bounding="rect(-200,-24.8271,400,49.6542)" text="container-crane" font-familyName="Phosphate" font-pixelSize="45" font-bold="0" font-underline="0" font-alignment="1" strokeStyle="0" markerStart="0" markerEnd="0" shadowEnabled="0" shadowOffsetX="0" shadowOffsetY="2" shadowBlur="4" shadowOpacity="160" blurEnabled="0" blurRadius="4" transform="matrix(1,0,0,1,500.5,135.751)" pers-center="0,0" pers-size="0,0" pers-start="0,0" pers-end="0,0" locked="0" mesh="" flag=""/>
            <path id="shapePath14" d="M320.461,136.25 C320.461,134.81 320.708,133.46 321.203,132.2 C321.698,130.94 322.396,129.845 323.296,128.915 C324.196,127.985 325.291,127.25 326.581,126.71 C327.871,126.17 329.311,125.9 330.901,125.9 C331.681,125.9 332.378,125.952 332.993,126.057 C333.608,126.162 334.126,126.29 334.546,126.44 C335.056,126.59 335.491,126.77 335.851,126.98 L336.481,125.9 C336.001,125.69 335.491,125.495 334.951,125.315 C334.441,125.165 333.856,125.03 333.196,124.91 C332.536,124.79 331.771,124.73 330.901,124.73 C329.371,124.73 327.908,125 326.513,125.54 C325.118,126.08 323.888,126.852 322.823,127.857 C321.758,128.862 320.903,130.077 320.258,131.502 C319.613,132.927 319.291,134.51 319.291,136.25 C319.291,138.02 319.598,139.61 320.213,141.02 C320.828,142.43 321.676,143.637 322.756,144.642 C323.836,145.647 325.096,146.42 326.536,146.96 C327.976,147.5 329.506,147.77 331.126,147.77 C332.026,147.77 332.836,147.695 333.556,147.545 C334.276,147.395 334.891,147.23 335.401,147.05 C335.971,146.84 336.481,146.6 336.931,146.33 L336.301,145.25 C335.911,145.52 335.461,145.745 334.951,145.925 C334.501,146.105 333.961,146.262 333.331,146.397 C332.701,146.532 331.966,146.6 331.126,146.6 C329.476,146.6 327.991,146.33 326.671,145.79 C325.351,145.25 324.233,144.515 323.318,143.585 C322.403,142.655 321.698,141.56 321.203,140.3 C320.708,139.04 320.461,137.69 320.461,136.25 M314.791,136.25 C314.791,133.85 315.211,131.682 316.051,129.747 C316.891,127.812 318.031,126.155 319.471,124.775 C320.911,123.395 322.591,122.337 324.511,121.602 C326.431,120.867 328.471,120.5 330.631,120.5 C332.341,120.5 333.863,120.665 335.198,120.995 C336.533,121.325 337.681,121.7 338.641,122.12 C339.751,122.6 340.711,123.125 341.521,123.695 L336.796,132.02 C336.316,131.66 335.791,131.315 335.221,130.985 C334.711,130.745 334.103,130.512 333.398,130.287 C332.693,130.062 331.891,129.95 330.991,129.95 C330.061,129.95 329.206,130.115 328.426,130.445 C327.646,130.775 326.963,131.225 326.378,131.795 C325.793,132.365 325.336,133.032 325.006,133.797 C324.676,134.562 324.511,135.38 324.511,136.25 C324.511,137.12 324.683,137.937 325.028,138.702 C325.373,139.467 325.846,140.135 326.446,140.705 C327.046,141.275 327.751,141.725 328.561,142.055 C329.371,142.385 330.256,142.55 331.216,142.55 C332.176,142.55 333.031,142.43 333.781,142.19 C334.531,141.95 335.161,141.68 335.671,141.38 C336.271,141.05 336.796,140.66 337.246,140.21 L341.971,148.535 C341.161,149.195 340.201,149.78 339.091,150.29 C338.131,150.71 336.976,151.1 335.626,151.46 C334.276,151.82 332.731,152 330.991,152 C328.651,152 326.491,151.617 324.511,150.852 C322.531,150.087 320.821,149.015 319.381,147.635 C317.941,146.255 316.816,144.597 316.006,142.662 C315.196,140.727 314.791,138.59 314.791,136.25 M342.416,136.25 C342.416,134.09 342.828,132.05 343.653,130.13 C344.478,128.21 345.603,126.537 347.028,125.112 C348.453,123.687 350.126,122.562 352.046,121.737 C353.966,120.912 356.006,120.5 358.166,120.5 C360.326,120.5 362.366,120.912 364.286,121.737 C366.206,122.562 367.878,123.687 369.303,125.112 C370.728,126.537 371.853,128.21 372.678,130.13 C373.503,132.05 373.916,134.09 373.916,136.25 C373.916,138.41 373.503,140.45 372.678,142.37 C371.853,144.29 370.728,145.962 369.303,147.387 C367.878,148.812 366.206,149.937 364.286,150.762 C362.366,151.587 360.326,152 358.166,152 C356.006,152 353.966,151.587 352.046,150.762 C350.126,149.937 348.453,148.812 347.028,147.387 C345.603,145.962 344.478,144.29 343.653,142.37 C342.828,140.45 342.416,138.41 342.416,136.25 M346.646,136.25 C346.646,137.84 346.946,139.332 347.546,140.727 C348.146,142.122 348.971,143.345 350.021,144.395 C351.071,145.445 352.293,146.27 353.688,146.87 C355.083,147.47 356.576,147.77 358.166,147.77 C359.756,147.77 361.248,147.47 362.643,146.87 C364.038,146.27 365.261,145.445 366.311,144.395 C367.361,143.345 368.186,142.122 368.786,140.727 C369.386,139.332 369.686,137.84 369.686,136.25 C369.686,134.66 369.386,133.167 368.786,131.772 C368.186,130.377 367.361,129.155 366.311,128.105 C365.261,127.055 364.038,126.23 362.643,125.63 C361.248,125.03 359.756,124.73 358.166,124.73 C356.576,124.73 355.083,125.03 353.688,125.63 C352.293,126.23 351.071,127.055 350.021,128.105 C348.971,129.155 348.146,130.377 347.546,131.772 C346.946,133.167 346.646,134.66 346.646,136.25 M351.866,136.25 C351.866,137.12 352.031,137.937 352.361,138.702 C352.691,139.467 353.141,140.135 353.711,140.705 C354.281,141.275 354.948,141.725 355.713,142.055 C356.478,142.385 357.296,142.55 358.166,142.55 C359.036,142.55 359.853,142.385 360.618,142.055 C361.383,141.725 362.051,141.275 362.621,140.705 C363.191,140.135 363.641,139.467 363.971,138.702 C364.301,137.937 364.466,137.12 364.466,136.25 C364.466,135.38 364.301,134.562 363.971,133.797 C363.641,133.032 363.191,132.365 362.621,131.795 C362.051,131.225 361.383,130.775 360.618,130.445 C359.853,130.115 359.036,129.95 358.166,129.95 C357.296,129.95 356.478,130.115 355.713,130.445 C354.948,130.775 354.281,131.225 353.711,131.795 C353.141,132.365 352.691,133.032 352.361,133.797 C352.031,134.562 351.866,135.38 351.866,136.25 M358.166,146.6 C356.726,146.6 355.383,146.33 354.138,145.79 C352.893,145.25 351.798,144.507 350.853,143.562 C349.908,142.617 349.166,141.522 348.626,140.277 C348.086,139.032 347.816,137.69 347.816,136.25 C347.816,134.81 348.086,133.467 348.626,132.222 C349.166,130.977 349.908,129.882 350.853,128.937 C351.798,127.992 352.893,127.25 354.138,126.71 C355.383,126.17 356.726,125.9 358.166,125.9 C359.606,125.9 360.948,126.17 362.193,126.71 C363.438,127.25 364.533,127.992 365.478,128.937 C366.423,129.882 367.166,130.977 367.706,132.222 C368.246,133.467 368.516,134.81 368.516,136.25 C368.516,137.69 368.246,139.032 367.706,140.277 C367.166,141.522 366.423,142.617 365.478,143.562 C364.533,144.507 363.438,145.25 362.193,145.79 C360.948,146.33 359.606,146.6 358.166,146.6 M376.388,121.22 L384.263,121.22 L392.543,132.785 L392.543,121.22 L401.948,121.22 L401.948,151.235 L394.027,151.235 L385.793,139.715 L385.793,151.235 L376.388,151.235 L376.388,121.22 M381.742,147.635 L381.742,126.845 L396.592,147.635 L397.763,147.635 L397.763,124.82 L396.592,124.82 L396.592,145.61 L381.742,124.82 L380.573,124.82 L380.573,147.635 L381.742,147.635 M409.051,129.095 L403.516,129.095 L403.516,121.22 L424.486,121.22 L424.486,129.095 L418.951,129.095 L418.951,151.235 L409.051,151.235 L409.051,129.095 M414.586,147.635 L414.586,125.9 L421.021,125.9 L421.021,124.82 L406.981,124.82 L406.981,125.9 L413.416,125.9 L413.416,147.635 L414.586,147.635 M434.969,121.22 L442.169,121.22 L453.554,151.235 L444.104,151.235 L443.114,148.535 L434.024,148.535 L433.034,151.235 L423.584,151.235 L434.969,121.22 M440.594,141.92 L438.569,136.655 L436.544,141.92 L440.594,141.92 M430.289,147.635 L431.144,145.385 L445.994,145.385 L446.849,147.635 L448.109,147.635 L439.424,124.82 L437.714,124.82 L429.029,147.635 L430.289,147.635 M438.569,125.9 L445.589,144.305 L431.549,144.305 L438.569,125.9 M454.216,121.22 L464.386,121.22 L464.386,151.235 L454.216,151.235 L454.216,121.22 M459.886,147.635 L459.886,124.82 L458.716,124.82 L458.716,147.635 L459.886,147.635 M467.528,121.22 L475.403,121.22 L483.683,132.785 L483.683,121.22 L493.088,121.22 L493.088,151.235 L485.168,151.235 L476.933,139.715 L476.933,151.235 L467.528,151.235 L467.528,121.22 M472.883,147.635 L472.883,126.845 L487.733,147.635 L488.903,147.635 L488.903,124.82 L487.733,124.82 L487.733,145.61 L472.883,124.82 L471.713,124.82 L471.713,147.635 L472.883,147.635 M496.231,121.22 L513.916,121.22 L513.916,129.095 L505.816,129.095 L505.816,132.425 L513.781,132.425 L513.781,139.895 L505.816,139.895 L505.816,143.36 L514.231,143.36 L514.231,151.235 L496.231,151.235 L496.231,121.22 M510.901,147.635 L510.901,146.555 L501.901,146.555 L501.901,136.7 L510.451,136.7 L510.451,135.62 L501.901,135.62 L501.901,125.9 L510.901,125.9 L510.901,124.82 L500.731,124.82 L500.731,147.635 L510.901,147.635 M526.279,140.795 C527.449,140.795 528.589,140.675 529.699,140.435 L533.974,147.635 L535.369,147.635 L530.869,140.075 C532.489,139.505 533.779,138.627 534.739,137.442 C535.699,136.257 536.179,134.72 536.179,132.83 C536.179,131.51 535.924,130.355 535.414,129.365 C534.904,128.375 534.206,127.542 533.321,126.867 C532.436,126.192 531.394,125.682 530.194,125.337 C528.994,124.992 527.689,124.82 526.279,124.82 L521.419,124.82 L521.419,147.635 L522.589,147.635 L522.589,140.795 L526.279,140.795 M522.589,139.715 L522.589,125.9 L526.279,125.9 C529.009,125.9 531.146,126.5 532.691,127.7 C534.236,128.9 535.009,130.61 535.009,132.83 C535.009,135.05 534.236,136.752 532.691,137.937 C531.146,139.122 529.009,139.715 526.279,139.715 L522.589,139.715 M516.919,121.22 L527.269,121.22 C529.189,121.22 530.966,121.475 532.601,121.985 C534.236,122.495 535.654,123.245 536.854,124.235 C538.054,125.225 538.991,126.447 539.666,127.902 C540.341,129.357 540.679,131.03 540.679,132.92 C540.679,134.42 540.469,135.695 540.049,136.745 C539.629,137.795 539.164,138.665 538.654,139.355 C538.054,140.135 537.379,140.795 536.629,141.335 L542.254,151.235 L531.004,151.235 L526.504,143.63 L526.504,151.235 L516.919,151.235 L516.919,121.22 M526.504,135.98 L526.999,135.98 C528.139,135.98 529.106,135.725 529.901,135.215 C530.696,134.705 531.094,133.85 531.094,132.65 C531.094,131.45 530.696,130.595 529.901,130.085 C529.106,129.575 528.139,129.32 526.999,129.32 L526.504,129.32 L526.504,135.98 M542.703,132.47 L554.583,132.47 L554.583,139.985 L542.703,139.985 L542.703,132.47 M551.928,136.745 L551.928,135.71 L545.448,135.71 L545.448,136.745 L551.928,136.745 M562.273,136.25 C562.273,134.81 562.521,133.46 563.016,132.2 C563.511,130.94 564.208,129.845 565.108,128.915 C566.008,127.985 567.103,127.25 568.393,126.71 C569.683,126.17 571.123,125.9 572.713,125.9 C573.493,125.9 574.191,125.952 574.806,126.057 C575.421,126.162 575.938,126.29 576.358,126.44 C576.868,126.59 577.303,126.77 577.663,126.98 L578.293,125.9 C577.813,125.69 577.303,125.495 576.763,125.315 C576.253,125.165 575.668,125.03 575.008,124.91 C574.348,124.79 573.583,124.73 572.713,124.73 C571.183,124.73 569.721,125 568.326,125.54 C566.931,126.08 565.701,126.852 564.636,127.857 C563.571,128.862 562.716,130.077 562.071,131.502 C561.426,132.927 561.103,134.51 561.103,136.25 C561.103,138.02 561.411,139.61 562.026,141.02 C562.641,142.43 563.488,143.637 564.568,144.642 C565.648,145.647 566.908,146.42 568.348,146.96 C569.788,147.5 571.318,147.77 572.938,147.77 C573.838,147.77 574.648,147.695 575.368,147.545 C576.088,147.395 576.703,147.23 577.213,147.05 C577.783,146.84 578.293,146.6 578.743,146.33 L578.113,145.25 C577.723,145.52 577.273,145.745 576.763,145.925 C576.313,146.105 575.773,146.262 575.143,146.397 C574.513,146.532 573.778,146.6 572.938,146.6 C571.288,146.6 569.803,146.33 568.483,145.79 C567.163,145.25 566.046,144.515 565.131,143.585 C564.216,142.655 563.511,141.56 563.016,140.3 C562.521,139.04 562.273,137.69 562.273,136.25 M556.603,136.25 C556.603,133.85 557.023,131.682 557.863,129.747 C558.703,127.812 559.843,126.155 561.283,124.775 C562.723,123.395 564.403,122.337 566.323,121.602 C568.243,120.867 570.283,120.5 572.443,120.5 C574.153,120.5 575.676,120.665 577.011,120.995 C578.346,121.325 579.493,121.7 580.453,122.12 C581.563,122.6 582.523,123.125 583.333,123.695 L578.608,132.02 C578.128,131.66 577.603,131.315 577.033,130.985 C576.523,130.745 575.916,130.512 575.211,130.287 C574.506,130.062 573.703,129.95 572.803,129.95 C571.873,129.95 571.018,130.115 570.238,130.445 C569.458,130.775 568.776,131.225 568.191,131.795 C567.606,132.365 567.148,133.032 566.818,133.797 C566.488,134.562 566.323,135.38 566.323,136.25 C566.323,137.12 566.496,137.937 566.841,138.702 C567.186,139.467 567.658,140.135 568.258,140.705 C568.858,141.275 569.563,141.725 570.373,142.055 C571.183,142.385 572.068,142.55 573.028,142.55 C573.988,142.55 574.843,142.43 575.593,142.19 C576.343,141.95 576.973,141.68 577.483,141.38 C578.083,141.05 578.608,140.66 579.058,140.21 L583.783,148.535 C582.973,149.195 582.013,149.78 580.903,150.29 C579.943,150.71 578.788,151.1 577.438,151.46 C576.088,151.82 574.543,152 572.803,152 C570.463,152 568.303,151.617 566.323,150.852 C564.343,150.087 562.633,149.015 561.193,147.635 C559.753,146.255 558.628,144.597 557.818,142.662 C557.008,140.727 556.603,138.59 556.603,136.25 M594.263,140.795 C595.433,140.795 596.573,140.675 597.683,140.435 L601.958,147.635 L603.353,147.635 L598.853,140.075 C600.473,139.505 601.763,138.627 602.723,137.442 C603.683,136.257 604.163,134.72 604.163,132.83 C604.163,131.51 603.908,130.355 603.398,129.365 C602.888,128.375 602.191,127.542 601.306,126.867 C600.421,126.192 599.378,125.682 598.178,125.337 C596.978,124.992 595.673,124.82 594.263,124.82 L589.403,124.82 L589.403,147.635 L590.573,147.635 L590.573,140.795 L594.263,140.795 M590.573,139.715 L590.573,125.9 L594.263,125.9 C596.993,125.9 599.131,126.5 600.676,127.7 C602.221,128.9 602.993,130.61 602.993,132.83 C602.993,135.05 602.221,136.752 600.676,137.937 C599.131,139.122 596.993,139.715 594.263,139.715 L590.573,139.715 M584.903,121.22 L595.253,121.22 C597.173,121.22 598.951,121.475 600.586,121.985 C602.221,122.495 603.638,123.245 604.838,124.235 C606.038,125.225 606.976,126.447 607.651,127.902 C608.326,129.357 608.663,131.03 608.663,132.92 C608.663,134.42 608.453,135.695 608.033,136.745 C607.613,137.795 607.148,138.665 606.638,139.355 C606.038,140.135 605.363,140.795 604.613,141.335 L610.238,151.235 L598.988,151.235 L594.488,143.63 L594.488,151.235 L584.903,151.235 L584.903,121.22 M594.488,135.98 L594.983,135.98 C596.123,135.98 597.091,135.725 597.886,135.215 C598.681,134.705 599.078,133.85 599.078,132.65 C599.078,131.45 598.681,130.595 597.886,130.085 C597.091,129.575 596.123,129.32 594.983,129.32 L594.488,129.32 L594.488,135.98 M620.047,121.22 L627.247,121.22 L638.633,151.235 L629.182,151.235 L628.193,148.535 L619.102,148.535 L618.112,151.235 L608.662,151.235 L620.047,121.22 M625.672,141.92 L623.648,136.655 L621.622,141.92 L625.672,141.92 M615.367,147.635 L616.223,145.385 L631.073,145.385 L631.927,147.635 L633.188,147.635 L624.503,124.82 L622.792,124.82 L614.107,147.635 L615.367,147.635 M623.648,125.9 L630.667,144.305 L616.628,144.305 L623.648,125.9 M639.294,121.22 L647.169,121.22 L655.449,132.785 L655.449,121.22 L664.854,121.22 L664.854,151.235 L656.934,151.235 L648.699,139.715 L648.699,151.235 L639.294,151.235 L639.294,121.22 M644.649,147.635 L644.649,126.845 L659.499,147.635 L660.669,147.635 L660.669,124.82 L659.499,124.82 L659.499,145.61 L644.649,124.82 L643.479,124.82 L643.479,147.635 L644.649,147.635 M667.997,121.22 L685.682,121.22 L685.682,129.095 L677.582,129.095 L677.582,132.425 L685.547,132.425 L685.547,139.895 L677.582,139.895 L677.582,143.36 L685.997,143.36 L685.997,151.235 L667.997,151.235 L667.997,121.22 M682.667,147.635 L682.667,146.555 L673.667,146.555 L673.667,136.7 L682.217,136.7 L682.217,135.62 L673.667,135.62 L673.667,125.9 L682.667,125.9 L682.667,124.82 L672.497,124.82 L672.497,147.635 L682.667,147.635 Z" style="stroke:#000000;stroke-opacity:0;stroke-width:1;stroke-linejoin:miter;stroke-miterlimit:2;stroke-linecap:round;fill-rule:nonzero;fill:#f44336;fill-opacity:1;"/>
        </g>
    </g>
</svg>
